<?xml version="1.0" encoding="utf-8"?>
<!-- Generator: Adobe Illustrator 24.1.0, SVG Export Plug-In . SVG Version: 6.00 Build 0)  -->
<svg version="1.1" xmlns="http://www.w3.org/2000/svg" xmlns:xlink="http://www.w3.org/1999/xlink" x="0px" y="0px"
	 viewBox="0 0 2000 2000" style="enable-background:new 0 0 2000 2000;" xml:space="preserve">
<style type="text/css">
	.st0{fill:#A7CFE8;}
	.st1{fill:#9DB6C9;}
	.st2{fill:#305D8A;}
	.st3{fill:#FFFFFF;}
	.st4{opacity:0.2;}
	.st5{fill:#AFDDB5;}
	.st6{opacity:0.38;}
	.st7{fill:#E4C6AA;}
	.st8{fill:#AA9E80;}
	.st9{fill:#EFEFEF;}
	.st10{opacity:0.41;}
	.st11{opacity:0.33;}
	.st12{fill:none;}
	.st13{fill:#EAE8E1;}
	.st14{clip-path:url(#SVGID_2_);fill:#1B262C;}
	
		.st15{clip-path:url(#SVGID_2_);fill:none;stroke:#1B262C;stroke-width:0.4404;stroke-linecap:round;stroke-linejoin:round;stroke-miterlimit:10;}
	.st16{clip-path:url(#SVGID_2_);}
	.st17{clip-path:url(#SVGID_4_);fill:#FF7B17;}
	.st18{clip-path:url(#SVGID_4_);fill:#FABA10;}
	.st19{clip-path:url(#SVGID_4_);fill:#FFFFFF;}
	
		.st20{clip-path:url(#SVGID_4_);fill:none;stroke:#111D5E;stroke-width:0.216;stroke-linecap:round;stroke-linejoin:round;stroke-miterlimit:10;}
	.st21{clip-path:url(#SVGID_4_);fill:#1B262C;}
	
		.st22{clip-path:url(#SVGID_6_);fill:none;stroke:#FC7C1B;stroke-width:0.432;stroke-linecap:round;stroke-linejoin:round;stroke-miterlimit:10;}
	
		.st23{clip-path:url(#SVGID_8_);fill:none;stroke:#1B262C;stroke-width:0.432;stroke-linecap:round;stroke-linejoin:round;stroke-miterlimit:10;}
	.st24{clip-path:url(#SVGID_8_);fill:#FFFFFF;}
	.st25{clip-path:url(#SVGID_8_);fill:#1B262C;}
	
		.st26{clip-path:url(#SVGID_8_);fill:none;stroke:#111D5E;stroke-width:0.216;stroke-linecap:round;stroke-linejoin:round;stroke-miterlimit:10;}
	
		.st27{clip-path:url(#SVGID_8_);fill:none;stroke:#1B262C;stroke-width:0.216;stroke-linecap:round;stroke-linejoin:round;stroke-miterlimit:10;}
	
		.st28{clip-path:url(#SVGID_10_);fill:none;stroke:#FC7C1B;stroke-width:0.432;stroke-linecap:round;stroke-linejoin:round;stroke-miterlimit:10;}
	.st29{clip-path:url(#SVGID_12_);fill:#1B262C;}
	.st30{clip-path:url(#SVGID_12_);fill:#FF7B17;}
	
		.st31{clip-path:url(#SVGID_12_);fill:none;stroke:#1B262C;stroke-width:0.432;stroke-linecap:round;stroke-linejoin:round;stroke-miterlimit:10;}
	.st32{clip-path:url(#SVGID_12_);fill:#FFFFFF;}
	
		.st33{clip-path:url(#SVGID_12_);fill:none;stroke:#1B262C;stroke-width:0.216;stroke-linecap:round;stroke-linejoin:round;stroke-miterlimit:10;}
	
		.st34{clip-path:url(#SVGID_12_);fill:none;stroke:#111D5E;stroke-width:0.432;stroke-linecap:round;stroke-linejoin:round;stroke-miterlimit:10;}
	.st35{clip-path:url(#SVGID_12_);fill:#FABA10;}
	
		.st36{clip-path:url(#SVGID_12_);fill:none;stroke:#FFFFFF;stroke-width:0.8641;stroke-linecap:round;stroke-linejoin:round;stroke-miterlimit:10;}
	
		.st37{clip-path:url(#SVGID_12_);fill:none;stroke:#FFFFFF;stroke-width:0.432;stroke-linecap:round;stroke-linejoin:round;stroke-miterlimit:10;}
	
		.st38{clip-path:url(#SVGID_12_);fill:none;stroke:#1B262C;stroke-width:0.4404;stroke-linecap:round;stroke-linejoin:round;stroke-miterlimit:10;}
	
		.st39{clip-path:url(#SVGID_14_);fill:none;stroke:#FC7C1B;stroke-width:0.432;stroke-linecap:round;stroke-linejoin:round;stroke-miterlimit:10;}
	
		.st40{clip-path:url(#SVGID_16_);fill:none;stroke:#FC7C1B;stroke-width:0.432;stroke-linecap:round;stroke-linejoin:round;stroke-miterlimit:10;}
	
		.st41{clip-path:url(#SVGID_18_);fill:none;stroke:#1B262C;stroke-width:0.432;stroke-linecap:round;stroke-linejoin:round;stroke-miterlimit:10;}
	.st42{clip-path:url(#SVGID_18_);fill:#FF7B17;}
	.st43{clip-path:url(#SVGID_18_);fill:#FFFFFF;}
	
		.st44{clip-path:url(#SVGID_18_);fill:none;stroke:#1B262C;stroke-width:0.2888;stroke-linecap:round;stroke-linejoin:round;stroke-miterlimit:10;}
	
		.st45{clip-path:url(#SVGID_18_);fill:none;stroke:#1B262C;stroke-width:0.3109;stroke-linecap:round;stroke-linejoin:round;stroke-miterlimit:10;}
	
		.st46{clip-path:url(#SVGID_18_);fill:none;stroke:#1B262C;stroke-width:0.2914;stroke-linecap:round;stroke-linejoin:round;stroke-miterlimit:10;}
	
		.st47{clip-path:url(#SVGID_18_);fill:none;stroke:#1B262C;stroke-width:0.2389;stroke-linecap:round;stroke-linejoin:round;stroke-miterlimit:10;}
	.st48{clip-path:url(#SVGID_18_);fill:#1B262C;}
	.st49{clip-path:url(#SVGID_18_);fill:#363742;}
	
		.st50{clip-path:url(#SVGID_18_);fill:none;stroke:#FF7B17;stroke-width:0.616;stroke-linecap:round;stroke-linejoin:round;stroke-miterlimit:10;}
	
		.st51{clip-path:url(#SVGID_18_);fill:none;stroke:#FF7B17;stroke-width:0.4095;stroke-linecap:round;stroke-linejoin:round;stroke-miterlimit:10;}
	
		.st52{clip-path:url(#SVGID_18_);fill:none;stroke:#FF7B17;stroke-width:0.432;stroke-linecap:round;stroke-linejoin:round;stroke-miterlimit:10;}
	
		.st53{clip-path:url(#SVGID_18_);fill:none;stroke:#1B262C;stroke-width:0.4319;stroke-linecap:round;stroke-linejoin:round;stroke-miterlimit:10;}
	
		.st54{clip-path:url(#SVGID_18_);fill:none;stroke:#FC7C1B;stroke-width:0.3957;stroke-linecap:round;stroke-linejoin:round;stroke-miterlimit:10;}
	
		.st55{clip-path:url(#SVGID_18_);fill:none;stroke:#FC7C1B;stroke-width:0.3947;stroke-linecap:round;stroke-linejoin:round;stroke-miterlimit:10;}
</style>
<g id="Capa_1">
	<path class="st0" d="M1593.7,1504.5h-139.9c-39.8,0-72.1-32.2-72.1-72.1c0-39.8,32.3-72.1,72.1-72.1h48.1
		c39.8,0,72.1-32.2,72.1-72.1s-32.3-72.1-72.1-72.1h-288.5c-39.8,0-72.1-32.2-72.1-72.1c0-39.8,32.3-72.1,72.1-72.1h485.2
		c39.8,0,72.1-32.2,72.1-72.1s-32.3-72.1-72.1-72.1h-345.3c-39.8,0-72.1-32.3-72.1-72.1c0-39.8,32.3-72.1,72.1-72.1h131.1
		c39.8,0,72.1-32.2,72.1-72.1c0-39.8-32.3-72.1-72.1-72.1h-288.5c-39.8,0-72.1-32.2-72.1-72.1s32.3-72.1,72.1-72.1h43.7
		c39.8,0,72.1-32.2,72.1-72.1c0-39.8-32.3-72.1-72.1-72.1H802.6c-39.8,0-72.1,32.2-72.1,72.1c0,39.8,32.3,72.1,72.1,72.1h26.2
		c39.8,0,72.1,32.2,72.1,72.1s-32.3,72.1-72.1,72.1h-48.1c-39.8,0-72.1,32.2-72.1,72.1c0,39.8,32.3,72.1,72.1,72.1H772
		c39.8,0,72.1,32.2,72.1,72.1c0,39.8-32.3,72.1-72.1,72.1H295.5c-39.8,0-72.1,32.2-72.1,72.1s32.3,72.1,72.1,72.1h122.4
		c39.8,0,72.1,32.2,72.1,72.1c0,39.8-32.3,72.1-72.1,72.1h-17.5c-39.8,0-72.1,32.2-72.1,72.1s32.3,72.1,72.1,72.1h327.8
		c39.8,0,72.1,32.2,72.1,72.1c0,39.8-32.3,72.1-72.1,72.1H562.1c-39.8,0-72.1,32.2-72.1,72.1c0,39.8,32.3,72.1,72.1,72.1h1031.5
		c39.8,0,72.1-32.2,72.1-72.1C1665.8,1536.7,1633.5,1504.5,1593.7,1504.5L1593.7,1504.5z"/>
	<polygon class="st1" points="438.8,926.2 311.5,1080.4 323.5,1089.8 450.4,936.8 	"/>
	<path class="st2" d="M323.5,1093.8c-0.9,0-1.7-0.3-2.5-0.8l-12-9.3c-0.9-0.7-1.4-1.6-1.5-2.7c-0.1-1.1,0.2-2.2,0.9-3l127.2-154.2
		c0.7-0.8,1.7-1.4,2.8-1.4s2.2,0.3,3,1l11.6,10.6c1.6,1.4,1.8,3.9,0.4,5.5l-126.9,153C325.8,1093.3,324.7,1093.8,323.5,1093.8
		L323.5,1093.8z M317.2,1079.8l5.7,4.4l121.9-147l-5.7-5.2L317.2,1079.8L317.2,1079.8z"/>
	<polygon class="st1" points="314.3,1133.8 389.6,1280.3 405.6,1280.3 327,1126.8 	"/>
	<path class="st2" d="M405.6,1284.3h-16c-1.5,0-2.9-0.8-3.6-2.2l-75.3-146.5c-1-1.9-0.3-4.3,1.6-5.3l12.8-7c1-0.5,2.1-0.6,3.1-0.3
		c1,0.3,1.9,1,2.4,2l78.6,153.5c0.6,1.2,0.6,2.7-0.1,3.9C408.3,1283.6,407,1284.3,405.6,1284.3L405.6,1284.3z M392,1276.3h7
		l-73.7-144l-5.7,3.1L392,1276.3L392,1276.3z"/>
	<path class="st1" d="M440.2,807.5c8.6,8.6,8.6,22.5,0,31.1c-8.6,8.6-22.5,8.6-31.1,0c-8.6-8.6-8.6-22.5,0-31.1
		C417.6,798.9,431.6,798.9,440.2,807.5z"/>
	<path class="st2" d="M424.6,849.1c-7,0-13.5-2.7-18.4-7.6c-10.1-10.1-10.1-26.7,0-36.8c4.9-4.9,11.5-7.6,18.4-7.6
		s13.5,2.7,18.4,7.6c10.1,10.2,10.1,26.7,0,36.8C438.1,846.4,431.5,849.1,424.6,849.1z M424.6,805.1c-4.8,0-9.3,1.9-12.7,5.3
		c-7,7-7,18.5,0,25.5c3.4,3.4,7.9,5.3,12.7,5.3c4.8,0,9.3-1.9,12.7-5.3c7-7,7-18.5,0-25.5C433.9,807,429.4,805.1,424.6,805.1z"/>
	<path class="st3" d="M562.4,906.2c15.1,15.1,15.1,39.6,0,54.7c-15.1,15.1-39.6,15.1-54.7,0c-15.1-15.1-15.1-39.6,0-54.7
		C522.8,891,547.3,891,562.4,906.2z"/>
	<path class="st2" d="M535,976.2c-11.4,0-22.1-4.4-30.2-12.5c-16.6-16.7-16.6-43.7,0-60.4c8.1-8.1,18.8-12.5,30.2-12.5
		c11.4,0,22.1,4.4,30.2,12.5c16.6,16.7,16.6,43.7,0,60.4C557.2,971.8,546.4,976.2,535,976.2z M535,898.8c-9.3,0-18,3.6-24.5,10.2
		c-13.5,13.5-13.5,35.5,0,49.1c6.6,6.5,15.3,10.2,24.5,10.2s18-3.6,24.5-10.2c13.5-13.5,13.5-35.5,0-49.1
		C553,902.4,544.3,898.8,535,898.8z"/>
	
		<rect x="390.2" y="814.7" transform="matrix(0.7071 -0.7071 0.7071 0.7071 -459.9779 546.9686)" class="st1" width="80.1" height="28"/>
	<path class="st2" d="M411.9,871c-1,0-2-0.4-2.8-1.2L389.2,850c-1.6-1.6-1.6-4.1,0-5.7l56.6-56.6c0.8-0.8,1.8-1.2,2.8-1.2
		c1.1,0,2.1,0.4,2.8,1.2l19.8,19.8c1.6,1.6,1.6,4.1,0,5.7l-56.6,56.6C413.9,870.6,412.9,871,411.9,871L411.9,871z M397.7,847.2
		l14.2,14.2l51-51l-14.2-14.2L397.7,847.2z"/>
	<polygon class="st1" points="598.7,895.3 496.8,997.2 392,869.8 471.3,790.5 	"/>
	<path class="st2" d="M496.8,1000h-0.2c-1.1,0-2.2,0-2.9-0.8L388.9,872c-1.3-1.6-1.2-3.8,0.3-5.2l79.3-79.2c1.5-1.5,3.8-1.5,5.4-0.2
		l127.4,104.8c0.9,0.7,1.4,1.8,1.5,2.9c0.1,1.1-0.4,2.2-1.2,3L499.6,999.4C498.9,1000.2,497.9,1000,496.8,1000L496.8,1000z
		 M397.4,870.1l99.7,121.2l95.7-95.7l-121.2-99.7L397.4,870.1L397.4,870.1z"/>
	<g class="st4">
		<polygon class="st1" points="544.9,943.4 592.6,895.8 471.6,795.9 434.5,833 		"/>
	</g>
	<g class="st4">
		
			<rect x="420.7" y="807.8" transform="matrix(0.7071 -0.7071 0.7071 0.7071 -445.5062 548.0034)" class="st1" width="36" height="8"/>
	</g>
	<g class="st4">
		<path class="st1" d="M427.9,805.6c0,0-11.6-3.1-19.6,8.9c0,0,6.1-1.1,9.2,1.5L427.9,805.6z"/>
	</g>
	<g class="st4">
		<polyline class="st1" points="530.4,968.8 536.4,968.9 567.6,937.8 570.4,934.9 570.2,929.5 530.8,968.9 		"/>
	</g>
	<path class="st1" d="M342.4,1105.3c0,15.7-12.7,28.5-28.5,28.5s-28.5-12.7-28.5-28.5c0-15.7,12.7-28.5,28.5-28.5
		S342.4,1089.6,342.4,1105.3z"/>
	<path class="st2" d="M314,1137.8c-17.9,0-32.5-14.6-32.5-32.5c0-17.9,14.6-32.5,32.5-32.5s32.5,14.6,32.5,32.5
		C346.4,1123.2,331.9,1137.8,314,1137.8z M314,1080.9c-13.5,0-24.5,11-24.5,24.5c0,13.5,11,24.5,24.5,24.5s24.5-11,24.5-24.5
		C338.4,1091.8,327.4,1080.9,314,1080.9z"/>
	<g class="st4">
		<path class="st1" d="M313.5,1080.9v48.9c12,0,24.5-10.9,24.5-24.5C338,1091.8,325.5,1080.9,313.5,1080.9L313.5,1080.9z"/>
	</g>
	<path class="st1" d="M327,1105.3c0,7.2-5.9,13.1-13.1,13.1s-13.1-5.9-13.1-13.1c0-7.2,5.9-13.1,13.1-13.1S327,1098.1,327,1105.3
		L327,1105.3z"/>
	<path class="st2" d="M314,1122.4c-9.4,0-17.1-7.7-17.1-17.1c0-9.4,7.7-17.1,17.1-17.1c9.4,0,17.1,7.7,17.1,17.1
		C331,1114.7,323.4,1122.4,314,1122.4z M314,1096.2c-5,0-9.1,4.1-9.1,9.1c0,5,4.1,9.1,9.1,9.1s9.1-4.1,9.1-9.1
		C323,1100.3,319,1096.2,314,1096.2z"/>
	<path class="st1" d="M484.2,1364.4c1-4.9,1.5-10.1,1.5-15.3c0-43.5-35.3-78.8-78.8-78.8s-78.8,35.3-78.8,78.8
		c0,5.2,0.5,10.3,1.5,15.3H484.2L484.2,1364.4z"/>
	<path class="st2" d="M484.2,1368.4H329.6c-1.9,0-3.6-1.4-3.9-3.2c-1.1-5.3-1.6-10.7-1.6-16.1c0-45.7,37.2-82.8,82.8-82.8
		s82.8,37.2,82.8,82.8c0,5.3-0.5,10.7-1.6,16.1C487.8,1367,486.1,1368.4,484.2,1368.4L484.2,1368.4z M332.9,1360.4h147.9
		c0.6-3.8,0.9-7.6,0.9-11.3c0-41.3-33.6-74.8-74.8-74.8c-41.3,0-74.8,33.6-74.8,74.8C332.1,1352.8,332.4,1356.6,332.9,1360.4
		L332.9,1360.4z"/>
	<g class="st4">
		<path class="st1" d="M406.9,1270.3c-13.3,0-25.8,3.3-36.8,9.1c4.2-0.7,8.4-1.1,12.8-1.1c43.5,0,78.8,35.3,78.8,78.8
			c0,2.5-0.1,4.9-0.4,7.3h22.9c1-4.9,1.5-10.1,1.5-15.3C485.7,1305.6,450.4,1270.3,406.9,1270.3L406.9,1270.3z"/>
	</g>
	<g class="st4">
		<polygon class="st1" points="441,935.3 325.8,1075.1 329.2,1076.9 443.5,938.6 		"/>
	</g>
	<g class="st4">
		<polygon class="st1" points="326.9,1135.1 323.7,1136.5 391.4,1268.3 395.1,1268.3 		"/>
	</g>
	<path class="st5" d="M1584.7,942.8c-7.1,14-22.7,20.3-34.9,14.2c-12.2-6.2-16.4-22.5-9.3-36.5c7.1-14,22.7-20.3,34.9-14.2
		C1587.6,912.5,1591.8,928.8,1584.7,942.8L1584.7,942.8z"/>
	<path class="st2" d="M1559.7,963.4c-4.2,0-8.1-0.9-11.8-2.8c-6.9-3.5-11.9-9.9-13.9-17.9c-2-7.8-1-16.4,2.9-24
		c5.8-11.4,16.9-18.7,28.5-18.7c4.2,0,8.1,0.9,11.8,2.8c14.2,7.2,19.1,26,11,41.9C1582.5,956,1571.3,963.4,1559.7,963.4
		L1559.7,963.4z M1565.4,907.9c-8.6,0-17,5.6-21.4,14.3c-3,5.9-3.8,12.5-2.3,18.4c1.5,5.8,4.9,10.3,9.8,12.7
		c2.5,1.3,5.3,1.9,8.2,1.9c8.6,0,17-5.6,21.4-14.3c6.1-12,2.7-26-7.5-31.2C1571,908.6,1568.3,907.9,1565.4,907.9L1565.4,907.9z"/>
	<g class="st6">
		<path class="st1" d="M1575.4,906.3c-0.5-0.3-1-0.5-1.5-0.7c3.2,7.4,3.1,16.7-1.2,25.2c-6.8,13.4-21.4,19.8-33.4,14.8
			c2.1,4.9,5.7,8.9,10.5,11.3c12.2,6.2,27.9-0.2,34.9-14.2C1591.8,928.8,1587.6,912.5,1575.4,906.3L1575.4,906.3z"/>
	</g>
	<path class="st5" d="M1562.8,954.8c16.2,30.9,7.6,67.3-19.2,81.4c-26.8,14.1-61.7,0.4-77.9-30.5c-16.2-30.9-7.6-67.3,19.2-81.4
		C1511.7,910.3,1546.6,923.9,1562.8,954.8z"/>
	<path class="st2" d="M1521,1045.8c-23.5,0-46.6-15-58.7-38.2c-8.3-15.8-10.7-33.5-6.9-49.8c3.9-16.5,13.7-29.7,27.8-37
		c7.6-4,15.9-6,24.6-6c23.5,0,46.6,15,58.7,38.2c8.3,15.8,10.7,33.5,6.9,49.8c-3.9,16.5-13.7,29.7-27.8,37
		C1538,1043.8,1529.7,1045.8,1521,1045.8z M1507.7,922.9c-7.4,0-14.4,1.7-20.8,5.1c-11.9,6.3-20.3,17.5-23.7,31.8
		c-3.4,14.4-1.2,30.1,6.2,44.2c10.8,20.6,31.1,33.9,51.6,33.9c7.4,0,14.4-1.7,20.9-5.1c11.9-6.3,20.3-17.5,23.7-31.8
		c3.4-14.4,1.2-30.1-6.2-44.2C1548.5,936.1,1528.3,922.9,1507.7,922.9L1507.7,922.9z"/>
	<g class="st6">
		<path class="st1" d="M1562.8,954.8c-16.2-30.9-51.1-44.5-77.9-30.5c-1,0.5-1.9,1.2-2.9,1.7c22.7,2,44.2,19.5,52.4,45.6
			c8.7,27.4,0.2,55.5-19.2,69.7c9.7,1.1,19.5-0.5,28.4-5.2C1570.4,1022.2,1579,985.7,1562.8,954.8L1562.8,954.8z"/>
	</g>
	
		<ellipse transform="matrix(0.3187 -0.9479 0.9479 0.3187 -56.2294 2152.0718)" class="st5" cx="1468.9" cy="1115.1" rx="23" ry="34"/>
	<path class="st2" d="M1476.5,1143.5c-5.4,0-10.9-0.9-16.4-2.8c-20.2-6.8-32.3-23.4-27.4-37.7c3.4-10,14.2-16.3,28.3-16.3
		c5.4,0,10.9,0.9,16.4,2.8c20.2,6.8,32.3,23.4,27.4,37.7C1501.4,1137.3,1490.6,1143.5,1476.5,1143.5z M1461,1094.7
		c-10.4,0-18.5,4.2-20.7,10.8c-3.3,9.8,7,22.4,22.4,27.6c4.6,1.6,9.3,2.3,13.8,2.3c10.4,0,18.5-4.2,20.7-10.8
		c3.3-9.8-7-22.4-22.4-27.6C1470.2,1095.5,1465.5,1094.7,1461,1094.7z"/>
	<g class="st6">
		<path class="st1" d="M1476.1,1093.3c-17.8-6-35.5-1.1-39.6,11c-0.5,1.6-0.8,3.3-0.8,5c7.6-3.2,18-3.4,28.4,0.1
			c15.4,5.2,25.8,16.8,25.7,27.7c5.4-2.3,9.5-6,11.2-11C1505.1,1113.9,1493.9,1099.3,1476.1,1093.3L1476.1,1093.3z"/>
	</g>
	<path class="st5" d="M1684.6,1015c8.1,12.4-0.1,32.2-18.3,44.2c-18.3,12.1-39.7,11.8-47.9-0.6c-8.1-12.4,0.1-32.2,18.3-44.2
		C1655,1002.4,1676.4,1002.6,1684.6,1015z"/>
	<path class="st2" d="M1639,1072.1c-10.6,0-19.1-4-23.9-11.2c-9.4-14.2-0.6-36.5,19.5-49.8c9.3-6.2,19.8-9.5,29.5-9.5
		c10.6,0,19.1,4,23.9,11.2c9.4,14.2,0.6,36.5-19.5,49.8C1659.2,1068.7,1648.7,1072.1,1639,1072.1L1639,1072.1z M1664.1,1009.6
		c-8.1,0-17.1,2.9-25.1,8.2c-16.1,10.6-24,28.3-17.2,38.7c3.2,4.9,9.4,7.6,17.2,7.6c8.1,0,17.1-2.9,25.1-8.2
		c16.1-10.6,24-28.3,17.2-38.7C1678,1012.3,1671.9,1009.6,1664.1,1009.6z"/>
	<g class="st6">
		<path class="st1" d="M1684.6,1015c-1.9-2.8-4.4-5-7.5-6.5c4.4,13.9-8.5,30.7-29,37.7c-12,4.1-23.9,3.9-32.8,0.3
			c-0.2,4.4,0.7,8.6,3.1,12.1c8.2,12.4,29.6,12.6,47.9,0.6C1684.5,1047.2,1692.7,1027.4,1684.6,1015z"/>
	</g>
	<ellipse class="st5" cx="1562.9" cy="1105.1" rx="88.1" ry="107.1"/>
	<path class="st2" d="M1562.9,1216.2c-50.8,0-92.1-49.8-92.1-111.1s41.3-111.1,92.1-111.1s92.1,49.8,92.1,111.1
		S1613.7,1216.2,1562.9,1216.2z M1562.9,1002c-46.4,0-84.1,46.3-84.1,103.1c0,56.9,37.7,103.1,84.1,103.1s84.1-46.3,84.1-103.1
		C1647,1048.2,1609.3,1002,1562.9,1002z"/>
	<g class="st6">
		<path class="st1" d="M1562.9,998c-6.2,0-12.2,0.8-18,2.3c40,10.1,70.1,53.2,70.1,104.9s-30.1,94.8-70.1,104.9
			c5.8,1.5,11.8,2.3,18,2.3c48.7,0,88.1-48,88.1-107.1S1611.6,998,1562.9,998L1562.9,998z"/>
	</g>
	<path class="st7" d="M1667,1341.7c0,12.5-10.2,22.7-22.7,22.7h-158.8c-12.5,0-22.7-10.2-22.7-22.7l-20-146.8
		c0-12.5,10.2-22.7,22.7-22.7h198.8c12.5,0,22.7,10.2,22.7,22.7L1667,1341.7L1667,1341.7z"/>
	<path class="st2" d="M1644.3,1368.4h-158.8c-14.6,0-26.6-11.8-26.7-26.4l-20-146.6c0-0.2,0-0.4,0-0.5c0-14.7,12-26.7,26.7-26.7
		h198.8c14.7,0,26.7,12,26.7,26.7c0,0.2,0,0.4,0,0.5l-20,146.6C1670.9,1356.6,1658.9,1368.4,1644.3,1368.4L1644.3,1368.4z
		 M1446.8,1194.6l20,146.5c0,0.2,0,0.4,0,0.5c0,10.3,8.4,18.7,18.7,18.7h158.8c10.3,0,18.7-8.4,18.7-18.7c0-0.2,0-0.4,0-0.5
		l20-146.5c-0.1-10.2-8.5-18.4-18.7-18.4h-198.8C1455.2,1176.2,1446.9,1184.4,1446.8,1194.6L1446.8,1194.6z"/>
	<g class="st6">
		<path class="st8" d="M1664.3,1172.2h-20c12.5,0,22.7,10.2,22.7,22.7l-20,146.8c0,12.5-10.2,22.7-22.7,22.7h20
			c12.5,0,22.7-10.2,22.7-22.7l20-146.8C1687,1182.4,1676.8,1172.2,1664.3,1172.2z"/>
	</g>
	<path class="st3" d="M1398.7,1309.7c0,12.5-10.2,22.7-22.7,22.7H640.6c-12.5,0-22.7-10.2-22.7-22.7V814.5
		c0-12.5,10.2-22.7,22.7-22.7H1376c12.5,0,22.7,10.2,22.7,22.7V1309.7z"/>
	<path class="st2" d="M1376,1336.4H640.6c-14.7,0-26.7-12-26.7-26.7V814.5c0-14.7,12-26.7,26.7-26.7H1376c14.7,0,26.7,12,26.7,26.7
		v495.2C1402.7,1324.4,1390.7,1336.4,1376,1336.4L1376,1336.4z M640.6,795.8c-10.3,0-18.7,8.4-18.7,18.7v495.2
		c0,10.3,8.4,18.7,18.7,18.7H1376c10.3,0,18.7-8.4,18.7-18.7V814.5c0-10.3-8.4-18.7-18.7-18.7L640.6,795.8L640.6,795.8z"/>
	<g class="st4">
		<path class="st1" d="M1372,791.8h-7.3c10,0,18,8.1,18,18v490.5h12V814.5C1394.7,801.9,1384.5,791.8,1372,791.8L1372,791.8z"/>
	</g>
	<g class="st4">
		<path class="st1" d="M1350.6,1189.5c0,12.5-10.2,22.7-22.7,22.7H688.6c-12.5,0-22.7-10.2-22.7-22.7v-343
			c0-12.5,10.2-22.7,22.7-22.7h639.3c12.5,0,22.7,10.2,22.7,22.7V1189.5z"/>
	</g>
	<path class="st9" d="M1350.6,1301.6c0,12.5-10.2,22.7-22.7,22.7H688.6c-12.5,0-22.7-10.2-22.7-22.7V858.5
		c0-12.5,10.2-22.7,22.7-22.7h639.3c12.5,0,22.7,10.2,22.7,22.7V1301.6z"/>
	<path class="st2" d="M1327.9,1328.4H688.6c-14.7,0-26.7-12-26.7-26.7V858.6c0-14.7,12-26.7,26.7-26.7h639.3
		c14.7,0,26.7,12,26.7,26.7v443.1C1354.6,1316.4,1342.6,1328.4,1327.9,1328.4L1327.9,1328.4z M688.6,839.9
		c-10.3,0-18.7,8.4-18.7,18.7v443.1c0,10.3,8.4,18.7,18.7,18.7h639.3c10.3,0,18.7-8.4,18.7-18.7V858.6c0-10.3-8.4-18.7-18.7-18.7
		L688.6,839.9L688.6,839.9z"/>
	<g class="st10">
		<path class="st3" d="M1326.9,839.8H894.6l452,316.3V862.5C1346.6,845.5,1338,839.8,1326.9,839.8L1326.9,839.8z"/>
	</g>
	<path class="st3" d="M1533.6,1304.3H486.9c-12.5,0-18.3,10.7-14.7,22.7c1.2,4,3.6,13.3,4.7,17.3c3.1,12.1,13.5,20,26,20h1014.7
		c12.5,0,22.9-7.9,26-20c1-4,3.5-13.3,4.7-17.3C1551.9,1315,1546.2,1304.3,1533.6,1304.3L1533.6,1304.3z"/>
	<path class="st2" d="M1517.6,1368.4H502.9c-14.4,0-26.4-9.3-29.9-23c-1-3.9-3.4-13.2-4.6-17.2c-2.3-7.7-1.3-15.1,2.6-20.4
		c3.6-4.8,9.2-7.4,15.9-7.4h1046.7c6.7,0,12.3,2.6,15.9,7.4c4,5.3,4.9,12.8,2.6,20.5c-1.2,4-3.6,13.3-4.6,17.2
		C1544,1359.1,1531.9,1368.4,1517.6,1368.4L1517.6,1368.4z M486.9,1308.3c-4.2,0-7.4,1.4-9.5,4.2c-2.4,3.3-2.9,8.2-1.4,13.4
		c1.2,4.1,3.7,13.4,4.7,17.5c2.6,10.3,11.3,17,22.2,17h1014.7c10.8,0,19.5-6.7,22.2-17c1-4.1,3.5-13.4,4.7-17.5
		c1.6-5.2,1.1-10.1-1.4-13.4c-2-2.7-5.3-4.2-9.5-4.2L486.9,1308.3L486.9,1308.3z"/>
	<g class="st4">
		<path class="st1" d="M1076.9,1304.3H898.2v13.3c0,12.5,10.2,22.7,22.7,22.7h174.8c12.5,0,22.7-10.2,22.7-22.7v-13.3H1076.9z"/>
	</g>
	<path class="st1" d="M1076.9,1304.3H902.4c1.3,11.3,10.9,20,22.5,20h166.8c11.6,0,21.2-8.8,22.5-20H1076.9L1076.9,1304.3z"/>
	<path class="st2" d="M1091.7,1328.4H924.9c-13.5,0-24.9-10.1-26.5-23.6c-0.1-1.1,0.2-2.3,1-3.1c0.8-0.9,1.8-1.3,3-1.3h211.9
		c1.1,0,2.2,0.5,3,1.3c0.8,0.9,1.1,2,1,3.1C1116.6,1318.3,1105.2,1328.4,1091.7,1328.4L1091.7,1328.4z M907.4,1308.4
		c2.7,7.1,9.6,12,17.5,12h166.8c7.9,0,14.8-4.9,17.5-12H907.4L907.4,1308.4z"/>
	<g class="st4">
		<path class="st1" d="M480.4,1348.4c4.8,7.5,13.1,12,22.6,12h1014.7c9.5,0,17.8-4.5,22.6-12H480.4L480.4,1348.4z"/>
	</g>
	<g class="st11">
		<path class="st1" d="M1327.9,835.8H688.6c-12.5,0-22.7,10.2-22.7,22.7v12c0-12.5,10.2-22.7,22.7-22.7h639.3
			c12.5,0,22.7,10.2,22.7,22.7v-12C1350.6,846,1340.4,835.8,1327.9,835.8z"/>
	</g>
	<g class="st4">
		<rect x="617.8" y="1292.3" class="st1" width="764.8" height="8"/>
	</g>
	<circle class="st2" cx="1010.3" cy="812.3" r="4.5"/>
	<g class="st4">
		<path class="st1" d="M1366.6,792c0.7-0.1,1.3-0.2,2-0.2h-2V792z"/>
	</g>
	<path class="st2" d="M1771.1,1368.4h-20c-2.2,0-4-1.8-4-4s1.8-4,4-4h20c2.2,0,4,1.8,4,4S1773.3,1368.4,1771.1,1368.4z M1719,1368.4
		h-32c-2.2,0-4-1.8-4-4s1.8-4,4-4h32c2.2,0,4,1.8,4,4S1721.3,1368.4,1719,1368.4z"/>
	<path class="st2" d="M1687,1368.4H377.6c-2.2,0-4-1.8-4-4s1.8-4,4-4H1687c2.2,0,4,1.8,4,4S1689.2,1368.4,1687,1368.4z"/>
	<path class="st2" d="M373.6,1368.4c-2.2,0-4-1.8-4-4s1.8-4,4-4h0c2.2,0,4,1.8,4,4S375.8,1368.4,373.6,1368.4z M341.5,1368.4h-32
		c-2.2,0-4-1.8-4-4s1.8-4,4-4h32c2.2,0,4,1.8,4,4S343.8,1368.4,341.5,1368.4z M277.5,1368.4h-32c-2.2,0-4-1.8-4-4s1.8-4,4-4h32
		c2.2,0,4,1.8,4,4S279.7,1368.4,277.5,1368.4z"/>
	<line class="st12" x1="1575" y1="935.6" x2="1596.9" y2="945.9"/>
	<path class="st2" d="M1596.9,950c-0.6,0-1.2-0.1-1.7-0.4l-21.8-10.3c-2-0.9-2.9-3.3-1.9-5.3c0.9-2,3.3-2.9,5.3-1.9l21.8,10.3
		c2,0.9,2.9,3.3,1.9,5.3C1599.8,949.1,1598.4,950,1596.9,950z"/>
	<line class="st12" x1="1562.6" y1="904.1" x2="1561.4" y2="889.9"/>
	<path class="st2" d="M1562.6,908.1c-2.1,0-3.8-1.6-4-3.7l-1.2-14.2c-0.2-2.2,1.4-4.1,3.7-4.3c2.2-0.3,4.1,1.5,4.3,3.7l1.2,14.2
		c0.2,2.2-1.4,4.1-3.7,4.3C1562.8,908.1,1562.7,908.1,1562.6,908.1z"/>
	<line class="st12" x1="1549.4" y1="918.8" x2="1530.8" y2="908.1"/>
	<path class="st2" d="M1549.4,922.8c-0.7,0-1.4-0.2-2-0.5l-18.5-10.7c-1.9-1.1-2.6-3.6-1.5-5.5c1.1-1.9,3.5-2.6,5.5-1.5l18.5,10.7
		c1.9,1.1,2.6,3.6,1.5,5.5C1552.1,922.1,1550.8,922.8,1549.4,922.8L1549.4,922.8z"/>
	<line class="st12" x1="1588.1" y1="918.8" x2="1596.9" y2="917.5"/>
	<path class="st2" d="M1588.1,922.8c-1.9,0-3.6-1.4-4-3.4c-0.3-2.2,1.2-4.2,3.4-4.6l8.8-1.3c2.2-0.3,4.2,1.2,4.6,3.4
		c0.3,2.2-1.2,4.2-3.4,4.6l-8.8,1.3C1588.5,922.8,1588.3,922.8,1588.1,922.8z"/>
	<line class="st12" x1="1596.9" y1="1074.1" x2="1610.4" y2="1058.6"/>
	<path class="st2" d="M1596.9,1078.1c-0.9,0-1.9-0.3-2.6-1c-1.7-1.5-1.8-4-0.4-5.7l13.5-15.5c1.5-1.7,4-1.8,5.7-0.4
		c1.7,1.5,1.8,4,0.4,5.7l-13.5,15.5C1599.1,1077.6,1598,1078.1,1596.9,1078.1z"/>
	<line class="st12" x1="1665" y1="1041.8" x2="1687" y2="1058.6"/>
	<path class="st2" d="M1687,1062.6c-0.8,0-1.7-0.3-2.4-0.8l-22-16.9c-1.8-1.3-2.1-3.9-0.7-5.6c1.3-1.8,3.9-2.1,5.6-0.7l22,16.9
		c1.8,1.3,2.1,3.9,0.7,5.6C1689.4,1062.1,1688.2,1062.6,1687,1062.6z"/>
	<line class="st12" x1="1658.7" y1="1063.4" x2="1661" y2="1070.1"/>
	<path class="st2" d="M1661,1074.1c-1.7,0-3.2-1-3.8-2.7l-2.3-6.7c-0.7-2.1,0.4-4.4,2.5-5.1c2.1-0.7,4.4,0.4,5.1,2.5l2.3,6.7
		c0.7,2.1-0.4,4.4-2.5,5.1C1661.9,1074,1661.4,1074.1,1661,1074.1z"/>
	<line class="st12" x1="1639.2" y1="1021.5" x2="1633.6" y2="1001.3"/>
	<path class="st2" d="M1639.2,1025.5c-1.8,0-3.4-1.2-3.9-2.9l-5.6-20.1c-0.6-2.1,0.7-4.3,2.8-4.9c2.1-0.6,4.3,0.7,4.9,2.8l5.6,20.1
		c0.6,2.1-0.7,4.3-2.8,4.9C1639.9,1025.5,1639.6,1025.5,1639.2,1025.5L1639.2,1025.5z"/>
	<line class="st12" x1="1663" y1="1004" x2="1667" y2="996"/>
	<path class="st2" d="M1663,1008c-0.6,0-1.2-0.1-1.8-0.4c-2-1-2.8-3.4-1.8-5.4l4-8c1-2,3.4-2.8,5.4-1.8c2,1,2.8,3.4,1.8,5.4l-4,8
		C1665.9,1007.2,1664.5,1008,1663,1008L1663,1008z"/>
	<line class="st12" x1="1679" y1="1021.5" x2="1701" y2="1016"/>
	<path class="st2" d="M1679,1025.5c-1.8,0-3.4-1.2-3.9-3c-0.5-2.1,0.8-4.3,2.9-4.8l22-5.5c2.1-0.5,4.3,0.8,4.8,2.9s-0.8,4.3-2.9,4.8
		l-22,5.5C1679.6,1025.5,1679.3,1025.5,1679,1025.5L1679,1025.5z"/>
	<line class="st12" x1="1687" y1="1032.2" x2="1694.3" y2="1032.8"/>
	<path class="st2" d="M1694.3,1036.8c-0.1,0-0.2,0-0.3,0l-7.3-0.6c-2.2-0.2-3.8-2.1-3.6-4.3c0.2-2.2,2.1-3.9,4.3-3.6l7.3,0.6
		c2.2,0.2,3.8,2.1,3.6,4.3C1698.1,1035.2,1696.4,1036.8,1694.3,1036.8z"/>
	<line class="st12" x1="1498.8" y1="927.9" x2="1502.8" y2="907.9"/>
	<path class="st2" d="M1498.8,931.9c-0.3,0-0.5,0-0.8-0.1c-2.2-0.4-3.6-2.5-3.1-4.7l4-20c0.4-2.2,2.5-3.6,4.7-3.1
		c2.2,0.4,3.6,2.5,3.1,4.7l-4,20C1502.3,930.6,1500.7,931.9,1498.8,931.9L1498.8,931.9z"/>
	<line class="st12" x1="1481.8" y1="926.2" x2="1472.1" y2="918.8"/>
	<path class="st2" d="M1481.8,930.2c-0.8,0-1.7-0.3-2.4-0.8l-9.7-7.4c-1.8-1.3-2.1-3.8-0.8-5.6c1.3-1.8,3.9-2.1,5.6-0.8l9.7,7.4
		c1.8,1.3,2.1,3.8,0.8,5.6C1484.2,929.7,1483,930.2,1481.8,930.2L1481.8,930.2z"/>
	<line class="st12" x1="1481.8" y1="1010" x2="1457.6" y2="1016"/>
	<path class="st2" d="M1457.6,1020c-1.8,0-3.4-1.2-3.9-3c-0.5-2.1,0.8-4.3,2.9-4.9l24.2-6c2.1-0.5,4.3,0.8,4.9,2.9
		c0.5,2.1-0.8,4.3-2.9,4.9l-24.2,6C1458.2,1020,1457.9,1020,1457.6,1020z"/>
	<line class="st12" x1="1498.8" y1="980.3" x2="1481.8" y2="974.6"/>
	<path class="st2" d="M1498.8,984.3c-0.4,0-0.8-0.1-1.3-0.2l-17-5.7c-2.1-0.7-3.2-3-2.5-5.1c0.7-2.1,3-3.2,5.1-2.5l17,5.7
		c2.1,0.7,3.2,3,2.5,5.1C1502,983.2,1500.5,984.3,1498.8,984.3L1498.8,984.3z"/>
	<line class="st12" x1="1514.3" y1="952.6" x2="1517.5" y2="935.6"/>
	<path class="st2" d="M1514.3,956.6c-0.2,0-0.5,0-0.7-0.1c-2.2-0.4-3.6-2.5-3.2-4.7l3.2-17c0.4-2.2,2.5-3.6,4.7-3.2
		c2.2,0.4,3.6,2.5,3.2,4.7l-3.2,17C1517.9,955.3,1516.2,956.6,1514.3,956.6z"/>
	<line class="st12" x1="1546.2" y1="955.3" x2="1558.8" y2="935.6"/>
	<path class="st2" d="M1546.2,959.3c-0.7,0-1.5-0.2-2.2-0.6c-1.9-1.2-2.4-3.7-1.2-5.5l12.7-19.6c1.2-1.9,3.7-2.4,5.5-1.2
		c1.9,1.2,2.4,3.7,1.2,5.5l-12.7,19.6C1548.8,958.6,1547.5,959.3,1546.2,959.3z"/>
	<line class="st12" x1="1556.2" y1="974.6" x2="1578.9" y2="977.5"/>
	<path class="st2" d="M1578.9,981.5c-0.2,0-0.3,0-0.5,0l-22.7-2.8c-2.2-0.3-3.8-2.3-3.5-4.5c0.3-2.2,2.2-3.7,4.5-3.5l22.7,2.8
		c2.2,0.3,3.7,2.3,3.5,4.5C1582.6,980,1580.9,981.5,1578.9,981.5z"/>
	<line class="st12" x1="1460.2" y1="991.7" x2="1438.7" y2="986"/>
	<path class="st2" d="M1460.2,995.7c-0.3,0-0.7,0-1-0.1l-21.5-5.7c-2.1-0.6-3.4-2.8-2.8-4.9c0.6-2.1,2.8-3.4,4.9-2.8l21.5,5.7
		c2.1,0.6,3.4,2.8,2.8,4.9C1463.6,994.5,1462,995.7,1460.2,995.7L1460.2,995.7z"/>
	<line class="st12" x1="1449.4" y1="964.6" x2="1457.6" y2="963.4"/>
	<path class="st2" d="M1449.4,968.6c-1.9,0-3.6-1.4-4-3.4c-0.3-2.2,1.2-4.2,3.3-4.6l8.1-1.3c2.2-0.3,4.2,1.2,4.6,3.3
		c0.3,2.2-1.2,4.2-3.3,4.6l-8.1,1.3C1449.8,968.6,1449.6,968.6,1449.4,968.6L1449.4,968.6z"/>
	<line class="st12" x1="1526.8" y1="988.8" x2="1530.8" y2="977.5"/>
	<path class="st2" d="M1526.8,992.8c-0.4,0-0.9-0.1-1.3-0.2c-2.1-0.7-3.2-3-2.4-5.1l4-11.4c0.7-2.1,3-3.2,5.1-2.4
		c2.1,0.7,3.2,3,2.4,5.1l-4,11.4C1530,991.8,1528.5,992.8,1526.8,992.8L1526.8,992.8z"/>
	<line class="st12" x1="1474.8" y1="945.9" x2="1464.2" y2="935.6"/>
	<path class="st2" d="M1474.8,950c-1,0-2-0.4-2.8-1.1l-10.6-10.3c-1.6-1.5-1.6-4.1-0.1-5.7c1.5-1.6,4.1-1.6,5.7-0.1l10.6,10.3
		c1.6,1.5,1.6,4.1,0.1,5.7C1476.9,949.5,1475.8,950,1474.8,950z"/>
	<line class="st12" x1="1500.8" y1="1001.3" x2="1507.5" y2="1004"/>
	<path class="st2" d="M1507.5,1008c-0.5,0-1-0.1-1.5-0.3l-6.7-2.7c-2.1-0.8-3.1-3.2-2.2-5.2c0.8-2.1,3.2-3,5.2-2.2l6.7,2.7
		c2.1,0.8,3.1,3.2,2.2,5.2C1510.6,1007.1,1509.1,1008,1507.5,1008L1507.5,1008z"/>
	<line class="st12" x1="1464.2" y1="1099.4" x2="1449.4" y2="1080.1"/>
	<path class="st2" d="M1464.2,1103.4c-1.2,0-2.4-0.5-3.2-1.6l-14.7-19.4c-1.3-1.8-1-4.3,0.8-5.6c1.8-1.3,4.3-1,5.6,0.8l14.7,19.4
		c1.3,1.8,1,4.3-0.8,5.6C1465.9,1103.1,1465,1103.4,1464.2,1103.4L1464.2,1103.4z"/>
	<line class="st12" x1="1442.7" y1="1096" x2="1435.7" y2="1089.8"/>
	<path class="st2" d="M1442.7,1100c-0.9,0-1.9-0.3-2.7-1l-7.1-6.3c-1.7-1.5-1.8-4-0.3-5.7c1.5-1.7,4-1.8,5.7-0.3l7.1,6.3
		c1.7,1.5,1.8,4,0.3,5.7C1444.9,1099.5,1443.8,1100,1442.7,1100L1442.7,1100z"/>
	<line class="st12" x1="1449.4" y1="1115.1" x2="1431.4" y2="1122.1"/>
	<path class="st2" d="M1431.4,1126.1c-1.6,0-3.1-1-3.7-2.6c-0.8-2.1,0.2-4.4,2.3-5.2l18.1-7c2.1-0.8,4.4,0.2,5.2,2.3
		c0.8,2.1-0.2,4.4-2.3,5.2l-18.1,7C1432.4,1126,1431.9,1126.1,1431.4,1126.1z"/>
	<line class="st12" x1="1449.4" y1="1131" x2="1442.7" y2="1139.5"/>
	<path class="st2" d="M1442.7,1143.5c-0.9,0-1.7-0.3-2.5-0.9c-1.7-1.4-2-3.9-0.6-5.6l6.7-8.5c1.4-1.7,3.9-2,5.6-0.6
		c1.7,1.4,2,3.9,0.6,5.6l-6.7,8.5C1445,1143,1443.9,1143.5,1442.7,1143.5L1442.7,1143.5z"/>
	<line class="st12" x1="1464.2" y1="1124.1" x2="1460.2" y2="1143.5"/>
	<path class="st2" d="M1460.2,1147.5c-0.3,0-0.5,0-0.8-0.1c-2.2-0.4-3.6-2.6-3.1-4.7l4-19.4c0.4-2.2,2.6-3.6,4.7-3.1
		c2.2,0.4,3.6,2.6,3.1,4.7l-4,19.4C1463.7,1146.2,1462.1,1147.5,1460.2,1147.5L1460.2,1147.5z"/>
	<line class="st12" x1="1599.6" y1="1021.5" x2="1607.6" y2="998"/>
	<path class="st2" d="M1599.6,1025.5c-0.4,0-0.9-0.1-1.3-0.2c-2.1-0.7-3.2-3-2.5-5.1l8-23.5c0.7-2.1,3-3.2,5.1-2.5
		c2.1,0.7,3.2,3,2.5,5.1l-8,23.5C1602.8,1024.5,1601.3,1025.5,1599.6,1025.5L1599.6,1025.5z"/>
	<line class="st12" x1="1584.7" y1="1001.3" x2="1586" y2="991.7"/>
	<path class="st2" d="M1584.7,1005.3c-0.2,0-0.3,0-0.5,0c-2.2-0.3-3.7-2.3-3.5-4.5l1.2-9.7c0.3-2.2,2.3-3.7,4.5-3.5
		c2.2,0.3,3.7,2.3,3.5,4.5l-1.2,9.7C1588.4,1003.8,1586.7,1005.3,1584.7,1005.3z"/>
	<line class="st12" x1="1514.3" y1="1032.8" x2="1494.1" y2="1018.7"/>
	<path class="st2" d="M1514.3,1036.8c-0.8,0-1.6-0.2-2.3-0.7l-20.2-14.1c-1.8-1.3-2.3-3.8-1-5.6c1.3-1.8,3.7-2.3,5.6-1l20.2,14.1
		c1.8,1.3,2.3,3.8,1,5.6C1516.8,1036.2,1515.6,1036.8,1514.3,1036.8L1514.3,1036.8z"/>
	<line class="st12" x1="1546.8" y1="1000" x2="1550.8" y2="988"/>
	<path class="st2" d="M1546.8,1004c-0.4,0-0.8-0.1-1.3-0.2c-2.1-0.7-3.2-3-2.5-5.1l4-12c0.7-2.1,3-3.2,5.1-2.5
		c2.1,0.7,3.2,3,2.5,5.1l-4,12C1550,1002.9,1548.5,1004,1546.8,1004z"/>
	<line class="st12" x1="1540.1" y1="1018.7" x2="1546.2" y2="1025.8"/>
	<path class="st2" d="M1546.2,1029.8c-1.1,0-2.2-0.5-3-1.4l-6.1-7c-1.4-1.7-1.3-4.2,0.4-5.7c1.7-1.4,4.2-1.3,5.7,0.4l6.1,7
		c1.4,1.7,1.3,4.2-0.4,5.6C1548.1,1029.5,1547.1,1029.8,1546.2,1029.8L1546.2,1029.8z"/>
	<line class="st12" x1="1564" y1="1016" x2="1561.4" y2="1036.8"/>
	<path class="st2" d="M1561.4,1040.8c-0.2,0-0.3,0-0.5,0c-2.2-0.3-3.7-2.3-3.5-4.5l2.6-20.8c0.3-2.2,2.2-3.7,4.5-3.5
		c2.2,0.3,3.7,2.3,3.5,4.5l-2.6,20.8C1565.1,1039.3,1563.4,1040.8,1561.4,1040.8z"/>
	<line class="st12" x1="1624.9" y1="1044.7" x2="1640.9" y2="1036.8"/>
	<path class="st2" d="M1624.9,1048.7c-1.5,0-2.9-0.8-3.6-2.2c-1-2-0.2-4.4,1.8-5.4l16-7.9c2-1,4.4-0.2,5.4,1.8c1,2,0.2,4.4-1.8,5.4
		l-16,7.9C1626.1,1048.6,1625.5,1048.7,1624.9,1048.7L1624.9,1048.7z"/>
	<line class="st12" x1="1634.9" y1="1056.1" x2="1646.9" y2="1056.1"/>
	<path class="st2" d="M1646.9,1060.1h-12c-2.2,0-4-1.8-4-4c0-2.2,1.8-4,4-4h12c2.2,0,4,1.8,4,4
		C1650.9,1058.3,1649.1,1060.1,1646.9,1060.1z"/>
	<line class="st12" x1="1468.8" y1="1074.1" x2="1484.8" y2="1086.8"/>
	<path class="st2" d="M1484.8,1090.8c-0.9,0-1.7-0.3-2.5-0.9l-16-12.7c-1.7-1.4-2-3.9-0.7-5.6c1.4-1.7,3.9-2,5.6-0.7l16,12.7
		c1.7,1.4,2,3.9,0.7,5.6C1487.2,1090.3,1486,1090.8,1484.8,1090.8L1484.8,1090.8z"/>
	<line class="st12" x1="1481.8" y1="1063.1" x2="1476.1" y2="1062.1"/>
	<path class="st2" d="M1481.8,1067.1c-0.2,0-0.5,0-0.7-0.1l-5.7-1c-2.2-0.4-3.6-2.5-3.2-4.7c0.4-2.2,2.5-3.6,4.7-3.2l5.7,1
		c2.2,0.4,3.6,2.5,3.2,4.7C1485.4,1065.7,1483.7,1067.1,1481.8,1067.1L1481.8,1067.1z"/>
	<line class="st12" x1="1500.8" y1="1050.2" x2="1515.9" y2="1062.1"/>
	<path class="st2" d="M1515.9,1066.1c-0.9,0-1.7-0.3-2.5-0.9l-15.1-11.9c-1.7-1.4-2-3.9-0.7-5.6c1.4-1.7,3.9-2,5.6-0.7l15.1,11.9
		c1.7,1.4,2,3.9,0.7,5.6C1518.3,1065.6,1517.1,1066.1,1515.9,1066.1L1515.9,1066.1z"/>
	<line class="st12" x1="1530.8" y1="1053.4" x2="1537" y2="1063.4"/>
	<path class="st2" d="M1537,1067.4c-1.3,0-2.7-0.7-3.4-1.9l-6.2-10c-1.2-1.9-0.6-4.4,1.3-5.5c1.9-1.2,4.3-0.6,5.5,1.3l6.2,10
		c1.2,1.9,0.6,4.4-1.3,5.5C1538.4,1067.2,1537.7,1067.4,1537,1067.4L1537,1067.4z"/>
	<line class="st12" x1="1603.7" y1="1112.1" x2="1615.3" y2="1099.4"/>
	<path class="st2" d="M1603.7,1116.1c-1,0-1.9-0.3-2.7-1.1c-1.6-1.5-1.7-4-0.2-5.7l11.6-12.7c1.5-1.6,4-1.7,5.7-0.2
		c1.6,1.5,1.7,4,0.2,5.7l-11.6,12.7C1605.9,1115.7,1604.8,1116.1,1603.7,1116.1L1603.7,1116.1z"/>
	<line class="st12" x1="1624.9" y1="1118.6" x2="1632.9" y2="1116.1"/>
	<path class="st2" d="M1624.9,1122.6c-1.7,0-3.3-1.1-3.8-2.8c-0.7-2.1,0.5-4.4,2.6-5l8-2.5c2.1-0.7,4.4,0.5,5,2.6
		c0.7,2.1-0.5,4.4-2.6,5l-8,2.5C1625.7,1122.5,1625.3,1122.6,1624.9,1122.6L1624.9,1122.6z"/>
	<line class="st12" x1="1636.4" y1="1092.9" x2="1659.8" y2="1089.8"/>
	<path class="st2" d="M1636.4,1096.9c-2,0-3.7-1.5-4-3.5c-0.3-2.2,1.2-4.2,3.4-4.5l23.4-3.1c2.2-0.3,4.2,1.3,4.5,3.4
		c0.3,2.2-1.2,4.2-3.4,4.5l-23.4,3.1C1636.8,1096.9,1636.6,1096.9,1636.4,1096.9L1636.4,1096.9z"/>
	<line class="st12" x1="1651.5" y1="1112.1" x2="1657" y2="1109.8"/>
	<path class="st2" d="M1651.5,1116.1c-1.5,0-3-0.9-3.7-2.4c-0.9-2,0.1-4.4,2.1-5.3l5.4-2.3c2-0.9,4.4,0.1,5.3,2.1
		c0.9,2-0.1,4.4-2.1,5.3l-5.4,2.3C1652.6,1116,1652,1116.1,1651.5,1116.1L1651.5,1116.1z"/>
	<line class="st12" x1="1490.3" y1="1143.5" x2="1474.8" y2="1156.2"/>
	<path class="st2" d="M1474.8,1160.2c-1.2,0-2.3-0.5-3.1-1.5c-1.4-1.7-1.1-4.2,0.6-5.6l15.5-12.7c1.7-1.4,4.2-1.1,5.6,0.6
		c1.4,1.7,1.1,4.2-0.6,5.6l-15.5,12.7C1476.6,1159.9,1475.7,1160.2,1474.8,1160.2L1474.8,1160.2z"/>
	<line class="st12" x1="1498.8" y1="1124.1" x2="1514.3" y2="1126.8"/>
	<path class="st2" d="M1514.3,1130.8c-0.2,0-0.5,0-0.7-0.1l-15.5-2.7c-2.2-0.4-3.6-2.4-3.3-4.6c0.4-2.2,2.4-3.6,4.6-3.3l15.5,2.7
		c2.2,0.4,3.6,2.4,3.3,4.6C1517.9,1129.4,1516.2,1130.8,1514.3,1130.8z"/>
	<line class="st12" x1="1508.3" y1="1153.5" x2="1523.5" y2="1143.5"/>
	<path class="st2" d="M1508.3,1157.5c-1.3,0-2.6-0.6-3.3-1.8c-1.2-1.8-0.7-4.3,1.1-5.5l15.1-10c1.8-1.2,4.3-0.7,5.5,1.1
		c1.2,1.8,0.7,4.3-1.1,5.5l-15.1,10C1509.8,1157.3,1509.1,1157.5,1508.3,1157.5L1508.3,1157.5z"/>
	<line class="st12" x1="1552.5" y1="1133.8" x2="1546.2" y2="1149.8"/>
	<path class="st2" d="M1546.2,1153.8c-0.5,0-1-0.1-1.5-0.3c-2.1-0.8-3.1-3.1-2.2-5.2l6.3-16c0.8-2.1,3.2-3.1,5.2-2.2
		c2.1,0.8,3.1,3.1,2.2,5.2l-6.3,16C1549.3,1152.8,1547.8,1153.8,1546.2,1153.8z"/>
	<line class="st12" x1="1567.5" y1="1148.5" x2="1571" y2="1156.2"/>
	<path class="st2" d="M1571,1160.2c-1.5,0-3-0.9-3.6-2.3l-3.5-7.7c-0.9-2,0-4.4,2-5.3c2-0.9,4.4,0,5.3,2l3.5,7.7c0.9,2,0,4.4-2,5.3
		C1572.1,1160.1,1571.6,1160.2,1571,1160.2z"/>
	<line class="st12" x1="1528.8" y1="1096" x2="1508.3" y2="1089.8"/>
	<path class="st2" d="M1528.8,1100c-0.4,0-0.8-0.1-1.2-0.2l-20.5-6.3c-2.1-0.6-3.3-2.9-2.7-5c0.6-2.1,2.9-3.3,5-2.7l20.5,6.3
		c2.1,0.6,3.3,2.9,2.7,5C1532.1,1098.9,1530.5,1100,1528.8,1100z"/>
	<line class="st12" x1="1578.9" y1="1117.4" x2="1582.2" y2="1109.8"/>
	<path class="st2" d="M1578.9,1121.4c-0.5,0-1.1-0.1-1.6-0.3c-2-0.9-2.9-3.3-2.1-5.3l3.3-7.6c0.9-2,3.2-2.9,5.3-2.1
		c2,0.9,2.9,3.3,2.1,5.3l-3.3,7.6C1581.9,1120.5,1580.4,1121.4,1578.9,1121.4L1578.9,1121.4z"/>
	<line class="st12" x1="1603.6" y1="1141.8" x2="1616.2" y2="1144.5"/>
	<path class="st2" d="M1616.2,1148.5c-0.3,0-0.6,0-0.8-0.1l-12.7-2.7c-2.2-0.5-3.6-2.6-3.1-4.7c0.5-2.2,2.6-3.6,4.7-3.1l12.7,2.7
		c2.2,0.5,3.6,2.6,3.1,4.7C1619.7,1147.2,1618.1,1148.5,1616.2,1148.5z"/>
	<line class="st12" x1="1446.7" y1="1220.2" x2="1683" y2="1220.2"/>
	<path class="st2" d="M1683,1224.2h-236.3c-2.2,0-4-1.8-4-4c0-2.2,1.8-4,4-4H1683c2.2,0,4,1.8,4,4
		C1687,1222.4,1685.2,1224.2,1683,1224.2z"/>
	<path class="st13" d="M628.5,1281.3c0-30.3-24.5-54.9-54.7-55.1v-7.4c0-12.5-10.2-22.7-22.7-22.7h-90.7
		c-12.5,0-22.7,10.2-22.7,22.7v122.8c0,12.5,10.2,22.7,22.7,22.7h90.7c12.5,0,22.7-10.2,22.7-22.7v-5.3
		C604,1336.2,628.5,1311.6,628.5,1281.3L628.5,1281.3z M573.8,1312.3v-62.1c17,0.2,30.7,14,30.7,31S590.8,1312.1,573.8,1312.3z"/>
	<path class="st2" d="M551.1,1368.4h-90.7c-14.7,0-26.7-12-26.7-26.7v-122.8c0-14.7,12-26.7,26.7-26.7h90.7
		c14.7,0,26.7,12,26.7,26.7v3.5c30.5,2.2,54.7,27.9,54.7,58.9s-24.2,56.7-54.7,58.9v1.5C577.8,1356.4,565.8,1368.4,551.1,1368.4
		L551.1,1368.4z M460.4,1200.2c-10.3,0-18.7,8.4-18.7,18.7v122.8c0,10.3,8.4,18.7,18.7,18.7h90.7c10.3,0,18.7-8.4,18.7-18.7v-5.3
		c0-2.2,1.8-4,4-4c28-0.2,50.7-23.1,50.7-51s-22.8-50.9-50.7-51c-2.2,0-4-1.8-4-4v-7.4c0-10.3-8.4-18.7-18.7-18.7L460.4,1200.2
		L460.4,1200.2z M573.8,1316.3c-1.1,0-2.1-0.4-2.8-1.2c-0.8-0.8-1.2-1.8-1.2-2.8v-62.1c0-1.1,0.4-2.1,1.2-2.8
		c0.8-0.8,1.8-1.2,2.9-1.2c19.1,0.2,34.7,15.9,34.7,35C608.5,1300.4,593,1316.1,573.8,1316.3
		C573.8,1316.3,573.8,1316.3,573.8,1316.3L573.8,1316.3z M577.8,1254.6v53.3c12.8-2.1,22.7-13.3,22.7-26.7
		S590.6,1256.7,577.8,1254.6z"/>
	<g class="st4">
		<path class="st1" d="M573.8,1226.3v-7.4c0-12.5-10.2-22.7-22.7-22.7h-29.4v168.2h29.4c12.5,0,22.7-10.2,22.7-22.7v-5.3
			c30.3-0.2,54.7-24.8,54.7-55.1S604.1,1226.5,573.8,1226.3L573.8,1226.3z M573.8,1312.4v-62.1c17,0.2,30.7,14,30.7,31
			S590.8,1312.2,573.8,1312.4z"/>
	</g>
	<line class="st12" x1="461.7" y1="1212.2" x2="549.8" y2="1212.2"/>
	<path class="st2" d="M549.8,1216.2h-88.1c-2.2,0-4-1.8-4-4c0-2.2,1.8-4,4-4h88.1c2.2,0,4,1.8,4,4
		C553.8,1214.4,552,1216.2,549.8,1216.2z"/>
</g>
<g id="Capa_2">
	<g>
		<g>
			<defs>
				<rect id="SVGID_1_" x="657.9" y="886.2" width="708.8" height="398.7"/>
			</defs>
			<clipPath id="SVGID_2_">
				<use xlink:href="#SVGID_1_"  style="overflow:visible;"/>
			</clipPath>
			<polygon class="st14" points="1047.6,1276.5 1168.1,1276.5 1183.4,1207 1062.8,1207 			"/>
			<line class="st15" x1="1180.8" y1="1220" x2="1064.4" y2="1220"/>
			<line class="st15" x1="1176.2" y1="1241.8" x2="1059.6" y2="1241.8"/>
			<line class="st15" x1="1171.3" y1="1263.6" x2="1054.9" y2="1263.6"/>
			<g class="st16">
				<defs>
					<rect id="SVGID_3_" x="657.9" y="886.2" width="708.8" height="398.7"/>
				</defs>
				<clipPath id="SVGID_4_">
					<use xlink:href="#SVGID_3_"  style="overflow:visible;"/>
				</clipPath>
				<path class="st17" d="M1108.6,1057.9c0,0-9.8,11.3-34.9,9.3c-12.6-1-24.2-11.7-24.2-11.7l4.6-9c0,0,9.2,6.4,22.4,5.8
					c15.4-0.7,21.2-9.8,21.2-9.8"/>
				<path class="st18" d="M975.8,995.2v43.3c-7.7,0-13.9,6.2-13.9,13.9c0,7.7,6.2,13.9,13.9,13.9v27.7h90.5c0.2-2.6,0.3-5.2,0.3-7.9
					C1066.7,1035.9,1026,995.2,975.8,995.2"/>
				<path class="st19" d="M1052.1,1051.9c0,0-2.9-5.3-7.6-5.1l5.6,5.1H1052.1z"/>
				<path class="st20" d="M1052.1,1051.9c0,0-2.9-5.3-7.6-5.1l5.6,5.1H1052.1z"/>
				<path class="st19" d="M1051.1,1052.9c0,0-4.4-5.4-7.2-6.5c-0.4-0.1-1.1-0.3-1.1,0.5c0,0.9,0.4,1.4,1.1,2.2
					c1.1,1.3,5.1,3.7,5.1,3.7H1051.1z"/>
				<path class="st20" d="M1051.1,1052.9c0,0-4.4-5.4-7.2-6.5c-0.4-0.1-1.1-0.3-1.1,0.5c0,0.9,0.4,1.4,1.1,2.2
					c1.1,1.3,5.1,3.7,5.1,3.7H1051.1z"/>
				<path class="st19" d="M1045.8,1049.7c0,0-2.1-1.4-3-1c-0.9,0.4,0.2,1.5,1.3,2.3c1.1,0.7,4.1,3.6,4.1,3.6h1.1l0.3-0.5l-1.4-3.2
					L1045.8,1049.7z"/>
				<path class="st20" d="M1045.8,1049.7c0,0-2.1-1.4-3-1c-0.9,0.4,0.2,1.5,1.3,2.3c1.1,0.7,4.1,3.6,4.1,3.6h1.1l0.3-0.5l-1.4-3.2
					L1045.8,1049.7z"/>
				<path class="st21" d="M1125.8,1190.6l3.4,6.6l-10.4,9.8l-7.2-0.1c-1.2,0-2-1.3-1.4-2.3l1.2-1.9c0.5-0.8,1.3-1.4,2.3-1.5l2.6-0.5
					l-1.1-3.6L1125.8,1190.6z"/>
				<path class="st19" d="M1095.3,1088.8c0,0-6.3,50.1-5.3,59.1c1,9,23.4,50,23.3,50.2c-0.1,0.2,14.5-8.7,14.5-8.7l-19.4-42.7
					l-4.5-50.9L1095.3,1088.8z"/>
			</g>
			<g class="st16">
				<defs>
					<path id="SVGID_5_" d="M1089.9,1147.9c1,9,23.4,50,23.3,50.2c-0.1,0.2,14.5-8.7,14.5-8.7l-19.4-42.7l-4.5-50.9l-8.6-7
						C1095.3,1088.8,1089,1138.9,1089.9,1147.9"/>
				</defs>
				<clipPath id="SVGID_6_">
					<use xlink:href="#SVGID_5_"  style="overflow:visible;"/>
				</clipPath>
				<path class="st22" d="M1098.1,1150.9c0,2.7-2.2,4.8-4.8,4.8c-2.7,0-4.8-2.2-4.8-4.8c0-2.7,2.2-4.8,4.8-4.8
					C1095.9,1146.1,1098.1,1148.3,1098.1,1150.9z"/>
				<path class="st22" d="M1121.4,1170.9c0,2.7-2.2,4.8-4.8,4.8c-2.7,0-4.8-2.2-4.8-4.8c0-2.7,2.2-4.8,4.8-4.8
					C1119.2,1166,1121.4,1168.2,1121.4,1170.9z"/>
				<path class="st22" d="M1095.2,1130.2c0,1.5-1.3,2.8-2.8,2.8c-1.5,0-2.8-1.3-2.8-2.8s1.3-2.8,2.8-2.8
					C1093.9,1127.4,1095.2,1128.7,1095.2,1130.2z"/>
				<path class="st22" d="M1118.8,1187.8c0,1.5-1.3,2.8-2.8,2.8c-1.5,0-2.8-1.3-2.8-2.8s1.3-2.8,2.8-2.8
					C1117.5,1185,1118.8,1186.3,1118.8,1187.8z"/>
			</g>
			<g class="st16">
				<defs>
					<rect id="SVGID_7_" x="657.9" y="886.2" width="708.8" height="398.7"/>
				</defs>
				<clipPath id="SVGID_8_">
					<use xlink:href="#SVGID_7_"  style="overflow:visible;"/>
				</clipPath>
				<path class="st23" d="M1095.3,1088.8c0,0-6.3,50.1-5.3,59.1c1,9,23.4,50,23.3,50.2c-0.1,0.2,14.5-8.7,14.5-8.7l-19.4-42.7
					l-4.5-50.9L1095.3,1088.8z"/>
				<polygon class="st24" points="1123.1,1086.2 1110.5,1199.4 1092.4,1199.4 1094.8,1087.8 				"/>
				<path class="st25" d="M1106.8,1199.4v7.6h-21.2c-1.4,0-2.2-1.6-1.4-2.7l0.9-1.3c0.7-1,1.7-1.6,2.9-1.7l5.9-0.5l2.5-1.5H1106.8z"
					/>
				<path class="st24" d="M1055,1055.9c0,0-1.3-6.5-3-7.1c-1.8-0.5,0.4,6.5,0.4,6.5L1055,1055.9z"/>
				<path class="st26" d="M1055,1055.9c0,0-1.3-6.5-3-7.1c-1.8-0.5,0.4,6.5,0.4,6.5L1055,1055.9z"/>
				<path class="st24" d="M1047.7,1053.3c0,0-2.9-1.6-3.9-1.4c-1,0.2-0.8,1.1,1.1,2c1.9,0.9,3,2,3.8,3.2c0.7,1.2,2,2.8,3.4,2.7
					c1.5-0.1,2.2-2.3,2.2-2.3v-2.1l-0.5-1.5l-1.6-2.4l-2.1-0.7L1047.7,1053.3z"/>
				<path class="st26" d="M1047.7,1053.3c0,0-2.9-1.6-3.9-1.4c-1,0.2-0.8,1.1,1.1,2c1.9,0.9,3,2,3.8,3.2c0.7,1.2,2,2.8,3.4,2.7
					c1.5-0.1,2.2-2.3,2.2-2.3v-2.1l-0.5-1.5l-1.6-2.4l-2.1-0.7L1047.7,1053.3z"/>
				<path class="st24" d="M1055,1055.9c0,0-1.3-6.5-3-7.1c-0.7-0.2-0.8,0.7-0.6,1.9c-1.1-1.5-3.5-4-6.7-3.9
					c-0.3-0.1-0.5-0.3-0.7-0.4c-0.4-0.1-1.1-0.3-1.1,0.5c0,0.7,0.2,1.1,0.6,1.6c-0.2,0-0.4,0-0.6,0.1c-0.9,0.4,0.2,1.5,1.3,2.3
					c0.4,0.3,1.1,0.9,1.9,1.5c-0.8-0.3-1.8-0.7-2.3-0.6c-1,0.2-0.8,1.1,1.1,2c1.9,0.9,3,2,3.8,3.2c0.7,1.2,2,2.8,3.4,2.7
					c1.5-0.1,2.2-2.3,2.2-2.3v-1.8L1055,1055.9z"/>
				<path class="st27" d="M1055,1055.9c0,0-1.3-6.5-3-7.1c-0.7-0.2-0.8,0.7-0.6,1.9c-1.1-1.5-3.5-4-6.7-3.9
					c-0.3-0.1-0.5-0.3-0.7-0.4c-0.4-0.1-1.1-0.3-1.1,0.5c0,0.7,0.2,1.1,0.6,1.6c-0.2,0-0.4,0-0.6,0.1c-0.9,0.4,0.2,1.5,1.3,2.3
					c0.4,0.3,1.1,0.9,1.9,1.5c-0.8-0.3-1.8-0.7-2.3-0.6c-1,0.2-0.8,1.1,1.1,2c1.9,0.9,3,2,3.8,3.2c0.7,1.2,2,2.8,3.4,2.7
					c1.5-0.1,2.2-2.3,2.2-2.3v-1.8L1055,1055.9z"/>
				<polygon class="st24" points="1100.8,1027.8 1106.2,1036.9 1095.9,1043.3 1092.7,1032 				"/>
				<polygon class="st23" points="1100.8,1027.8 1106.2,1036.9 1095.9,1043.3 1092.7,1032 				"/>
			</g>
			<g class="st16">
				<defs>
					<polygon id="SVGID_9_" points="1094.8,1087.8 1092.4,1199.4 1110.5,1199.4 1123.1,1086.2 					"/>
				</defs>
				<clipPath id="SVGID_10_">
					<use xlink:href="#SVGID_9_"  style="overflow:visible;"/>
				</clipPath>
				<path class="st28" d="M1124,1096.5c0,2.7-2.2,4.8-4.8,4.8c-2.7,0-4.8-2.2-4.8-4.8c0-2.7,2.2-4.8,4.8-4.8
					C1121.9,1091.7,1124,1093.9,1124,1096.5z"/>
				<path class="st28" d="M1099.8,1197.7c0,2.7-2.2,4.8-4.8,4.8c-2.7,0-4.8-2.2-4.8-4.8c0-2.7,2.2-4.8,4.8-4.8
					C1097.6,1192.8,1099.8,1195,1099.8,1197.7z"/>
				<path class="st28" d="M1100.1,1093.3c0,2.7-2.2,4.8-4.8,4.8c-2.7,0-4.8-2.2-4.8-4.8c0-2.7,2.2-4.8,4.8-4.8
					C1098,1088.5,1100.1,1090.6,1100.1,1093.3z"/>
				<path class="st28" d="M1119.6,1121.5c0,2.7-2.2,4.8-4.8,4.8c-2.7,0-4.8-2.2-4.8-4.8s2.2-4.8,4.8-4.8
					C1117.5,1116.6,1119.6,1118.8,1119.6,1121.5z"/>
				<path class="st28" d="M1109.2,1136c0,2.7-2.2,4.8-4.8,4.8c-2.7,0-4.8-2.2-4.8-4.8c0-2.7,2.2-4.8,4.8-4.8
					C1107,1131.1,1109.2,1133.3,1109.2,1136z"/>
				<path class="st28" d="M1098.1,1170.9c0,2.7-2.2,4.8-4.8,4.8c-2.7,0-4.8-2.2-4.8-4.8c0-2.7,2.2-4.8,4.8-4.8
					C1095.9,1166,1098.1,1168.2,1098.1,1170.9z"/>
				<path class="st28" d="M1110,1105.8c0,1.5-1.3,2.8-2.8,2.8c-1.5,0-2.8-1.3-2.8-2.8s1.3-2.8,2.8-2.8
					C1108.7,1103,1110,1104.3,1110,1105.8z"/>
				<path class="st28" d="M1098.1,1118.7c0,1.5-1.3,2.8-2.8,2.8c-1.5,0-2.8-1.3-2.8-2.8c0-1.5,1.3-2.8,2.8-2.8
					C1096.8,1115.9,1098.1,1117.1,1098.1,1118.7z"/>
				<path class="st28" d="M1118.2,1150.9c0,1.5-1.3,2.8-2.8,2.8c-1.5,0-2.8-1.3-2.8-2.8s1.3-2.8,2.8-2.8
					C1117,1148.1,1118.2,1149.4,1118.2,1150.9z"/>
				<path class="st28" d="M1103.2,1153.7c0,1.5-1.3,2.8-2.8,2.8s-2.8-1.3-2.8-2.8s1.3-2.8,2.8-2.8S1103.2,1152.2,1103.2,1153.7z"/>
				<path class="st28" d="M1108.8,1182.3c0,1.5-1.3,2.8-2.8,2.8s-2.8-1.3-2.8-2.8s1.3-2.8,2.8-2.8S1108.8,1180.7,1108.8,1182.3z"/>
			</g>
			<g class="st16">
				<defs>
					<rect id="SVGID_11_" x="657.9" y="886.2" width="708.8" height="398.7"/>
				</defs>
				<clipPath id="SVGID_12_">
					<use xlink:href="#SVGID_11_"  style="overflow:visible;"/>
				</clipPath>
				<path class="st29" d="M1099.3,1031.9c0.3-0.9,0.5-1.7,0.6-2.5l-7.2,2.6l1.7,6.1C1096.4,1037,1098.3,1035,1099.3,1031.9"/>
				<path class="st30" d="M1125.5,1087c0,0-3.2-52-22.6-51c-12.7,0.7-11.2,19.4-10.7,34.6c0.5,15.1,1.1,19,1.1,19
					S1104.4,1091.6,1125.5,1087"/>
				<path class="st30" d="M1109.9,1054.9c0,0-8.2,12.5-33.3,14c-12.6,0.7-25.5-8.2-25.5-8.2l5.2-8.7c0,0,8.3,4.6,21.2,2.3
					c15.2-2.8,21.2-9,21.2-9L1109.9,1054.9z"/>
				<path class="st31" d="M1098.7,1045.2c0,0-6.1,6.3-21.2,9c-13,2.4-21.2-2.3-21.2-2.3l-5.2,8.7c0,0,12.9,9,25.5,8.2
					c25.1-1.5,33.3-14,33.3-14"/>
				<path class="st32" d="M1081.7,1017c0,0,0.1,6.2,1.2,9c0,0-1.9,0.4-1.5,2.2c0.5,1.8,2.7,1.7,2.7,1.7c0.4,0.5,2,4.2,5.3,5.3
					c3.3,1.1,8.9-0.5,11-6.9c2-6.4-0.6-10.8-2.8-12.7C1095.5,1013.6,1085.3,1009.3,1081.7,1017"/>
				<path class="st31" d="M1081.7,1017c0,0,0.1,6.2,1.2,9c0,0-1.9,0.4-1.5,2.2c0.5,1.8,2.7,1.7,2.7,1.7c0.4,0.5,2,4.2,5.3,5.3
					c3.3,1.1,8.9-0.5,11-6.9c2-6.4-0.6-10.8-2.8-12.7C1095.5,1013.6,1085.3,1009.3,1081.7,1017z"/>
				<path class="st29" d="M1092.9,1022.9c0,0-1.9,0.8-1.9-1.3c0-2.1-0.6-4.3-3.6-3.8c-3,0.5-9.3,2.3-10.6-2.2
					c-1.3-4.5,5.3-5.7,5.3-5.7s0-4.8,4.9-4.7c4.9,0,6,0.5,9.8,0.6c3.8,0.2,5.8,2.3,5.9,8.5c0.1,6.2,1.7,11.9,0.5,14
					c-1.2,2.1-5.4,1.4-7.8-4.2C1095.4,1024.2,1095.1,1022.6,1092.9,1022.9"/>
				<path class="st32" d="M1092.1,1024.1c0,0-0.2-5,2.6-6c2.8-1,3.7,2,2.6,4.4s-3.4,2.8-3.9,2.6
					C1093,1025,1092.1,1024.1,1092.1,1024.1"/>
				<polyline class="st31" points="1094.5,1090 1092.4,1199.4 1110.5,1199.4 1123.1,1087.5 				"/>
				<path class="st29" d="M1085.7,1024.1c0.2,0.7-0.1,1.3-0.7,1.5c-0.5,0.1-1.1-0.3-1.2-1c-0.2-0.7,0.1-1.3,0.7-1.5
					C1085,1022.9,1085.6,1023.4,1085.7,1024.1"/>
				<path class="st31" d="M1087.1,1031.7c0,0,2.5-0.1,4-1.6"/>
				<path class="st33" d="M1044.6,1046.9c0,0,2.2,0.8,6.1,4"/>
				<line class="st33" x1="1051.3" y1="1050.8" x2="1052.7" y2="1052.8"/>
				<path class="st33" d="M1043.4,1048.6c0,0,3.8,1.7,5.6,3.7"/>
				<path class="st33" d="M1046,1052.5c0,0,1.4,1,2.3,1.8"/>
				<path class="st34" d="M1091.9,1066.3c0,0,0.8,18.8,1.4,23.4c0,0,10.9,2.1,32.2-2.6"/>
				<path class="st31" d="M1092.4,1049.4c0.3-4.9,2.6-11.4,8.2-13.1c9.3-2.8,14.4,7.2,16.1,11c2.4,5.4,5.5,16.5,6.9,24.1"/>
				<path class="st31" d="M1086.3,1021.1c0,0-2.2-0.9-3.2,0.8"/>
				<path class="st30" d="M1091.9,1025.9c0.2,1-0.4,1.9-1.3,2.1c-1,0.2-1.9-0.4-2.1-1.3c-0.2-1,0.4-1.9,1.3-2.1
					C1090.7,1024.3,1091.6,1024.9,1091.9,1025.9"/>
				<path class="st35" d="M957.4,1099.4v-27.7c-7.7,0-13.9-6.2-13.9-13.9c0-7.7,6.2-13.9,13.9-13.9v-43.3
					c-50.2,0-90.9,40.7-90.9,90.9c0,12.3,2.4,23.9,6.8,34.6h0l0,0.1c1.5,3.6,48.4,98.8,48.4,98.8H993c0,0,46.5-94.4,47.4-96.4
					l1.1-2.5c3.4-8.4,5.7-17.3,6.5-26.7H957.4z"/>
				<path class="st36" d="M962.3,1207c-0.4-20.9-1-53.6-0.7-62c0.3-12.6,9.8-22.8,18.2-18.8c8.4,4.1,3.4,19.7-23.9,19.1
					c-29.4-0.7-32.7-15-24.3-19.1c8.4-4.1,17.9,6.2,18.2,18.8c0.3,12.6-1.1,80-1.1,80"/>
				<path class="st36" d="M962.7,1225c0,0-0.1-3.3-0.2-8.6"/>
				<path class="st32" d="M993.6,1276.5h-72.3c-3.1,0-5.5-2.5-5.5-5.5v-40.5c0-3.1,2.5-5.5,5.5-5.5h72.3c3.1,0,5.5,2.5,5.5,5.5v40.5
					C999.1,1274.1,996.6,1276.5,993.6,1276.5"/>
				<path class="st31" d="M993.6,1276.5h-72.3c-3.1,0-5.5-2.5-5.5-5.5v-40.5c0-3.1,2.5-5.5,5.5-5.5h72.3c3.1,0,5.5,2.5,5.5,5.5v40.5
					C999.1,1274.1,996.6,1276.5,993.6,1276.5z"/>
				<line class="st31" x1="915.7" y1="1235.4" x2="975.3" y2="1235.4"/>
				<line class="st31" x1="929.4" y1="1245.6" x2="999.1" y2="1245.6"/>
				<line class="st31" x1="915.7" y1="1255.9" x2="999.1" y2="1255.9"/>
				<line class="st31" x1="923.4" y1="1266.1" x2="999.1" y2="1266.1"/>
				<line class="st31" x1="981.3" y1="1235.4" x2="994.6" y2="1235.4"/>
				<line class="st31" x1="915.7" y1="1245.6" x2="921.1" y2="1245.6"/>
				<path class="st37" d="M892.9,1035.1c-0.9,1.1-1.9,2.3-2.8,3.5"/>
				<path class="st37" d="M915.8,1016.4c-5.9,3-12.9,7.9-19.4,14.7"/>
				<polyline class="st31" points="983.5,995.2 1018.3,972.6 1041.6,1023.3 				"/>
				<path class="st29" d="M1018.2,974.1h-0.2c-0.4,0-0.8-0.4-0.8-0.8V971c0-0.4,0.4-0.8,0.8-0.8h0.2c0.4,0,0.8,0.4,0.8,0.8v2.3
					C1019,973.7,1018.6,974.1,1018.2,974.1"/>
				<line class="st31" x1="1018.1" y1="922.7" x2="1018.1" y2="900.9"/>
				<line class="st31" x1="1018.1" y1="970.9" x2="1018.1" y2="928.8"/>
				<polygon class="st32" points="1078.2,1276.3 1063.1,1207.2 1183.2,1207.2 1198.4,1276.3 				"/>
				<path class="st29" d="M1183,1207.4l15.1,68.7h-119.7l-15.1-68.7H1183z M1183.4,1207h-120.6l15.3,69.5h120.6L1183.4,1207z"/>
				<line class="st38" x1="1065.7" y1="1220" x2="1186.1" y2="1220"/>
				<line class="st38" x1="1069.7" y1="1241.8" x2="1191" y2="1241.8"/>
				<line class="st38" x1="1067.7" y1="1263.6" x2="1195.8" y2="1263.6"/>
				<path class="st32" d="M866.9,1155.2c0,0-4.8,43.3-17.4,68.3c-12.7,24.9-27.3,44.9-27.3,44.9l-14.7-9.8c0,0,23.9-35.4,29.2-67.1
					c5.3-31.7,6.5-38.9,6.5-38.9L866.9,1155.2z"/>
				<path class="st31" d="M866.9,1155.2c0,0-4.8,43.3-17.4,68.3c-12.7,24.9-27.3,44.9-27.3,44.9l-14.7-9.8c0,0,23.9-35.4,29.2-67.1
					c5.3-31.7,6.5-38.9,6.5-38.9L866.9,1155.2z"/>
				<path class="st29" d="M809.8,1259.9l-3.7,7.1l10.2,9.4l8.1,0c0.9,0,1.5-1,0.9-1.8l-1.5-2.2c-0.5-0.8-1.3-1.4-2.3-1.5l-2.6-0.5
					l1.1-3.6L809.8,1259.9z"/>
				<path class="st32" d="M871.4,1125.9c0,0,0,17.9,21.5,32.6l-3.7,1.7c0,0-13.6-4.5-18.5-11.9
					C865.7,1141,871.4,1125.9,871.4,1125.9"/>
				<path class="st31" d="M871.4,1125.9c0,0,0,17.9,21.5,32.6l-3.7,1.7c0,0-13.6-4.5-18.5-11.9
					C865.7,1141,871.4,1125.9,871.4,1125.9z"/>
				<line class="st31" x1="856.5" y1="1165" x2="856.5" y2="1165"/>
				<polygon class="st32" points="865,1098.7 860.2,1106.7 870.5,1113.1 873.7,1101.9 				"/>
				<path class="st29" d="M867.1,1101.7c-0.3-0.9-0.5-1.7-0.6-2.5l7.2,2.6l-1.7,6.1C869.9,1106.8,868,1104.9,867.1,1101.7"/>
				<polygon class="st31" points="865,1098.7 860.2,1106.7 870.5,1113.1 873.7,1101.9 				"/>
				<path class="st32" d="M882,1084.2c0,0,1.4,6,1.1,9c0,0,2-0.1,2,1.7c0,1.8-2.2,2.4-2.2,2.4c-0.3,0.6-0.9,4.6-3.8,6.4
					c-2.9,1.9-8.8,1.8-12.4-3.9c-3.6-5.7-2.2-10.6-0.6-13C867.8,1084.3,876.5,1077.6,882,1084.2"/>
				<path class="st31" d="M882,1084.2c0,0,1.4,6,1.1,9c0,0,2-0.1,2,1.7c0,1.8-2.2,2.4-2.2,2.4c-0.3,0.6-0.9,4.6-3.8,6.4
					c-2.9,1.9-8.8,1.8-12.4-3.9c-3.6-5.7-2.2-10.6-0.6-13C867.8,1084.3,876.5,1077.6,882,1084.2z"/>
				<path class="st29" d="M872.6,1092.7c0,0,2.1,0.3,1.5-1.8c-0.5-2.1-0.5-4.3,2.5-4.6c3.1-0.3,9.6-0.1,9.7-4.8s-6.6-4.2-6.6-4.2
					s-1.2-4.6-5.9-3.3c-4.8,1.3-5.7,2-9.3,3.1c-3.6,1.1-5,3.7-3.6,9.8c1.4,6,1.4,12,3.1,13.7c1.7,1.8,5.5,0,6.5-6.1
					C870.6,1094.6,870.5,1093,872.6,1092.7"/>
				<path class="st32" d="M873.7,1093.7c0,0-1-4.9-4-5.1c-3-0.2-3,2.9-1.4,4.9c1.6,2.1,4,1.8,4.4,1.5
					C873.1,1094.7,873.7,1093.7,873.7,1093.7"/>
				<path class="st29" d="M879.9,1092c0,0.7,0.5,1.3,1,1.2s1-0.6,0.9-1.3c0-0.7-0.5-1.3-1-1.2C880.3,1090.7,879.9,1091.3,879.9,1092
					"/>
				<path class="st31" d="M880.5,1099.7c0,0-2.5,0.6-4.2-0.5"/>
				<polygon class="st32" points="870.8,1158.5 884.2,1267.1 866.7,1269.5 842.3,1155.6 				"/>
				<polygon class="st31" points="870.8,1158.5 884.2,1267.1 866.7,1269.5 842.3,1155.6 				"/>
				<path class="st29" d="M870.7,1268.9l0.8,7.6l21.1-2.3c1.4-0.1,2-1.8,1.1-2.8l-1.1-1.2c-0.8-0.9-1.9-1.4-3-1.3l-5.9,0.1l-2.7-1.5
					L870.7,1268.9z"/>
				<path class="st30" d="M840.9,1156.8c0,0,3.2-52,22.6-51c12.7,0.7,11.2,19.4,10.7,34.6c-0.5,15.1-1.1,19-1.1,19
					S861.9,1161.4,840.9,1156.8"/>
				<path class="st31" d="M874.2,1140.5c0,0-0.5,14.4-1.1,19c0,0-10.9,2.1-32.2-2.6"/>
				<path class="st31" d="M874,1119.3c-0.3-4.9-2.6-11.4-8.2-13.1c-9.3-2.8-14.4,7.2-16.1,11c-2.4,5.4-5,14-6.4,21.6"/>
				
					<rect x="774.9" y="1141.8" transform="matrix(0.9521 -0.3058 0.3058 0.9521 -308.684 316.5774)" class="st32" width="162.2" height="3.2"/>
				
					<rect x="774.9" y="1141.8" transform="matrix(0.9521 -0.3058 0.3058 0.9521 -308.684 316.5774)" class="st31" width="162.2" height="3.2"/>
				
					<rect x="782.7" y="1166.2" transform="matrix(0.9521 -0.3059 0.3059 0.9521 -315.8457 320.2328)" class="st32" width="162.2" height="3.2"/>
				
					<rect x="782.7" y="1166.2" transform="matrix(0.9521 -0.3059 0.3059 0.9521 -315.8457 320.2328)" class="st31" width="162.2" height="3.2"/>
				
					<rect x="921.9" y="1124" transform="matrix(0.9521 -0.3059 0.3059 0.9521 -302.9675 336.8863)" class="st32" width="3.2" height="22.5"/>
				
					<rect x="921.9" y="1124" transform="matrix(0.9521 -0.3059 0.3059 0.9521 -302.9675 336.8863)" class="st31" width="3.2" height="22.5"/>
				
					<rect x="900.7" y="1130.8" transform="matrix(0.9521 -0.3059 0.3059 0.9521 -306.0734 330.736)" class="st32" width="3.2" height="22.5"/>
				
					<rect x="900.7" y="1130.8" transform="matrix(0.9521 -0.3059 0.3059 0.9521 -306.0734 330.736)" class="st31" width="3.2" height="22.5"/>
				
					<rect x="879.5" y="1137.6" transform="matrix(0.9521 -0.3059 0.3059 0.9521 -309.1735 324.5768)" class="st32" width="3.2" height="22.5"/>
				
					<rect x="879.5" y="1137.6" transform="matrix(0.9521 -0.3059 0.3059 0.9521 -309.1735 324.5768)" class="st31" width="3.2" height="22.5"/>
				
					<rect x="858.3" y="1144.4" transform="matrix(0.9521 -0.3059 0.3059 0.9521 -312.2735 318.4175)" class="st32" width="3.2" height="22.5"/>
				
					<rect x="858.3" y="1144.4" transform="matrix(0.9521 -0.3059 0.3059 0.9521 -312.2735 318.4175)" class="st31" width="3.2" height="22.5"/>
				
					<rect x="837.1" y="1151.2" transform="matrix(0.9521 -0.3059 0.3059 0.9521 -315.3732 312.2578)" class="st32" width="3.2" height="22.5"/>
				
					<rect x="837.1" y="1151.2" transform="matrix(0.9521 -0.3059 0.3059 0.9521 -315.3732 312.2578)" class="st31" width="3.2" height="22.5"/>
				
					<rect x="815.9" y="1158" transform="matrix(0.9521 -0.3059 0.3059 0.9521 -318.4732 306.0985)" class="st32" width="3.2" height="22.5"/>
				
					<rect x="815.9" y="1158" transform="matrix(0.9521 -0.3059 0.3059 0.9521 -318.4732 306.0985)" class="st31" width="3.2" height="22.5"/>
				
					<rect x="794.7" y="1164.8" transform="matrix(0.9521 -0.3059 0.3059 0.9521 -321.5733 299.9393)" class="st32" width="3.2" height="22.5"/>
				
					<rect x="794.7" y="1164.8" transform="matrix(0.9521 -0.3059 0.3059 0.9521 -321.5733 299.9393)" class="st31" width="3.2" height="22.5"/>
				<path class="st32" d="M853.2,1167c0,0-1,1.7-0.4,4.1c0.6,2.4,1,2.7,2.8,2.6c1.8-0.1,5.7-1.6,6.2-2.3c0.3-0.5-1.2-2.5-1.6-4
					c1.4-0.5,1-1.3-0.2-1.8c-1-0.4-2.5-0.5-2.5-0.5"/>
				<path class="st31" d="M853.2,1167c0,0-1,1.7-0.4,4.1c0.6,2.4,1,2.7,2.8,2.6c1.8-0.1,5.7-1.6,6.2-2.3c0.3-0.5-1.2-2.5-1.6-4
					c1.4-0.5,1-1.3-0.2-1.8c-1-0.4-2.5-0.5-2.5-0.5"/>
				<path class="st32" d="M858.9,1131.6c0,0-4.1,5.1-4.4,12.7c-0.2,7.7,3,20.7,3,20.7l-1.6,0.7l-2.8,1.2c0,0-10.4-14.5-11.3-25.7
					c-0.9-11.2,8.4-20.6,8.4-20.6L858.9,1131.6z"/>
				<path class="st31" d="M857.6,1165c0,0-3.2-13.1-3-20.7c0.2-7.7,4.4-12.7,4.4-12.7l-8.7-10.9c0,0-9.3,9.4-8.4,20.6
					c0.9,11.2,11.3,25.7,11.3,25.7"/>
				<polyline class="st30" points="856.5,1111.2 845.6,1125.1 858.6,1134.2 866.5,1121.1 				"/>
				<polyline class="st31" points="856.5,1111.2 845.6,1125.1 858.6,1134.2 866.5,1121.1 				"/>
			</g>
			<g class="st16">
				<defs>
					<polygon id="SVGID_13_" points="866.7,1269.5 884.2,1267.1 870.8,1158.5 842.3,1155.6 					"/>
				</defs>
				<clipPath id="SVGID_14_">
					<use xlink:href="#SVGID_13_"  style="overflow:visible;"/>
				</clipPath>
				<path class="st39" d="M875.7,1173.6c0,0-16.4,15.8-11.1,29.3c5.3,13.5,12.9-5.6-2.7-1c-15.7,4.6-11.3,49-10.9,49.3"/>
				<path class="st39" d="M856.5,1232.7c0,0,18.2,3.5,17.7,11.5c-0.3,4.8-9.4-2.9,0.7-4c11.3-1.2,22.8,17.9,23.2,18.4"/>
			</g>
			<g class="st16">
				<defs>
					<path id="SVGID_15_" d="M836.7,1191.5c-5.3,31.7-29.2,67.1-29.2,67.1l14.7,9.8c0,0,14.6-20,27.3-44.9
						c12.7-24.9,17.4-68.3,17.4-68.3l-23.8-2.6C843.2,1152.6,842,1159.8,836.7,1191.5"/>
				</defs>
				<clipPath id="SVGID_16_">
					<use xlink:href="#SVGID_15_"  style="overflow:visible;"/>
				</clipPath>
				<path class="st40" d="M834.1,1189.7c0,0-1.3,21.9,3.1,27.5c4.4,5.6,3.6-4.3-3.3-1.5c-6.9,2.8-2.6,24,10,29.9"/>
				<path class="st40" d="M806,1244.1c2.6-0.3,23.7-1.9,24,3.1c0.3,5-6.6-0.5-2.1-3.6c4.6-3,16,6.7,16,12.7"/>
			</g>
			<g class="st16">
				<defs>
					<rect id="SVGID_17_" x="657.9" y="886.2" width="708.8" height="398.7"/>
				</defs>
				<clipPath id="SVGID_18_">
					<use xlink:href="#SVGID_17_"  style="overflow:visible;"/>
				</clipPath>
				<path class="st41" d="M881.9,1089.2c0,0-1.1-1-2.7-0.2"/>
				<path class="st42" d="M877.9,1096c-0.3,0.9-1.3,1.4-2.3,1.1c-0.9-0.3-1.4-1.3-1.1-2.3c0.3-0.9,1.3-1.4,2.3-1.1
					C877.7,1094.1,878.2,1095.1,877.9,1096"/>
				<path class="st43" d="M898.1,1155.4c-0.2,0.2-0.5,0.6-0.9,1.2c0.1-0.9,0-2-0.7-1.6c-0.2,0.1-0.5,0.6-0.8,1.3
					c-0.1-0.3-0.3-0.5-0.6-0.2c-0.3,0.2-0.8,1.1-1.2,2c0-0.5,0-1-0.4-1c-0.7,0-1.7,2.7-1.9,3.4l-0.8,0.5c1.7,0.8,4.8,0.3,5.9-0.5
					c1.7-1.3,1.9-3.2,2-3.6C898.8,1156.1,898.8,1154.9,898.1,1155.4"/>
				<path class="st44" d="M898.1,1155.4c-0.2,0.2-0.5,0.6-0.9,1.2c0.1-0.9,0-2-0.7-1.6c-0.2,0.1-0.5,0.6-0.8,1.3
					c-0.1-0.3-0.3-0.5-0.6-0.2c-0.3,0.2-0.8,1.1-1.2,2c0-0.5,0-1-0.4-1c-0.7,0-1.7,2.7-1.9,3.4l-0.8,0.5c1.7,0.8,4.8,0.3,5.9-0.5
					c1.7-1.3,1.9-3.2,2-3.6C898.8,1156.1,898.8,1154.9,898.1,1155.4z"/>
				<path class="st45" d="M896.6,1155c0.9-0.5,0.8,1.1,0.7,2s-0.5,2.2-0.5,2.2"/>
				<path class="st46" d="M895.2,1156.1c0.7-0.5,0.7,0.7,0.6,1.5c-0.1,0.8-0.5,2.1-0.5,2.1"/>
				<path class="st47" d="M893.6,1157.1c0.5,0,0.5,0.8,0.4,1.5c-0.1,0.7-0.3,1.5-0.3,1.5"/>
				<path class="st48" d="M1234.4,1074.7c0,0-2-1.2-5.2-0.3c-3.1,0.9-6.5,6.6-5,15.2c1.4,8.6,1.8,12.2-0.3,15.6
					c-2.1,3.4-2.3,7.2-1.6,8.6c0.7,1.4,9.6-0.7,9.6-0.7s5-3.2,5.7-4.5c0.7-1.3,3.5-2.9,3.6-6.3s-0.1-6.8,0.1-8.1
					c0.2-1.3-6.4-15.3-6.4-15.3L1234.4,1074.7z"/>
				<path class="st42" d="M1238,1074.4c0,0-1.2-0.9-3.2-0.5c-2,0.4-4.1,4.3-4.2,5.2c-0.1,0.9,0.6,1.8,0.6,1.8L1238,1074.4z"/>
				<polygon class="st49" points="1213.4,1265.5 1209.9,1276.5 1224,1276.5 1223,1265.5 				"/>
				<path class="st49" d="M1215.9,1269.6c0,0-13.9-0.3-13.4,6.9h15.9L1215.9,1269.6z"/>
				<polygon class="st49" points="1257.6,1265.5 1261.1,1276.5 1247,1276.5 1248.1,1265.5 				"/>
				<path class="st49" d="M1255.2,1269.6c0,0,13.9-0.3,13.4,6.9h-15.9L1255.2,1269.6z"/>
				<polygon class="st43" points="1253,1155.4 1261.2,1267.5 1243.6,1267.5 1234.5,1182.7 1237.7,1154.5 				"/>
				<polygon class="st41" points="1253,1155.4 1261.2,1267.5 1243.6,1267.5 1234.5,1182.7 1237.7,1154.5 				"/>
				<polyline class="st43" points="1241.2,1168.9 1227.7,1267.5 1209.2,1267.5 1217.9,1152.3 1242.7,1158.1 				"/>
				<polyline class="st41" points="1241.2,1168.9 1227.7,1267.5 1209.2,1267.5 1217.9,1152.3 1242.7,1158.1 				"/>
				<path class="st48" d="M1253.3,1160.9c0,0-20,4.2-35.8-4.1l0.4-3.4l35.2,2.9L1253.3,1160.9z"/>
				<path class="st42" d="M1238.8,1104.3c0,0-7.9,1.5-12.6,4c-4.7,2.5-5.6,29.2-8.7,35.9c-3.1,6.7-3.8,8.7,0,11.4
					c3.8,2.7,12.7,4.6,24.5,4c11.8-0.7,13.2-3.2,13.2-3.2s4-29.8,1.9-39.7C1255,1106.9,1241.7,1105.5,1238.8,1104.3"/>
				<path class="st42" d="M1226.5,1108.1c0,0-5.3,2.1-11.1,11.2c-5.7,9-4.9,21.2,5.1,21.5c10.1,0.3,22.1-6.3,22.1-6.3l2.4-3.2
					c0,0-4.6-6.8-20.2-2.9c0,0,2.4-1.8,2.9-9.9"/>
				<path class="st43" d="M1245.2,1101.3l0.3,6c0.1,1.5-0.8,2.9-2.2,3.4c-1,0.4-2.3,0.5-4,0.1c-2.8-0.7-3.9-2.4-4.4-3.5
					c-0.2-0.6-0.2-1.3,0.1-1.9l2.7-6.1L1245.2,1101.3z"/>
				<path class="st41" d="M1245.2,1101.3l0.3,6c0.1,1.5-0.8,2.9-2.2,3.4c-1,0.4-2.3,0.5-4,0.1c-2.8-0.7-3.9-2.4-4.4-3.5
					c-0.2-0.6-0.2-1.3,0.1-1.9l2.7-6.1L1245.2,1101.3z"/>
				<path class="st48" d="M1237.1,1100.2c0.9,1.5,3.5,5.2,8.2,5.1l-0.2-3.9l-6.6-1.7l-1.1-0.1L1237.1,1100.2z"/>
				<path class="st43" d="M1244.3,1102.9c-1.7,0-4.3-0.4-7-2.3c-4.2-2.9-4.6-5.9-3.9-11.8c0.4-3.8,6-10.1,11.6-10.1
					c2.8,0,6.6,1.6,8.9,9.2c0,0.1,0,0.1,0,0.2c0,0-1.1,2.5-1.3,4.1c0,0.4,0,0.9,0,1.5c0,1.7,0,3.9-1.5,6.3
					C1249.8,1101.8,1247.2,1102.9,1244.3,1102.9"/>
				<path class="st48" d="M1245,1078.9c3.4,0,6.7,2.3,8.7,9c0,0-1.2,2.5-1.4,4.2c-0.2,1.7,0.5,4.6-1.5,7.6c-1.1,1.7-3.6,2.9-6.5,2.9
					c-2.2,0-4.6-0.7-6.9-2.2c-4-2.8-4.5-5.5-3.8-11.6C1234,1085.1,1239.5,1078.9,1245,1078.9 M1245,1078.5v0.4V1078.5
					c-2.6,0-5.4,1.3-7.9,3.7c-2.2,2.1-3.7,4.7-3.9,6.7c-0.7,6-0.2,9,4,12c2.7,1.9,5.4,2.3,7.1,2.3c3,0,5.7-1.2,6.9-3.1
					c1.6-2.4,1.5-4.7,1.5-6.4c0-0.5,0-1,0-1.4c0.2-1.7,1.3-4.1,1.3-4.1c0-0.1,0.1-0.2,0-0.3
					C1251.7,1080.1,1247.8,1078.5,1245,1078.5"/>
				<path class="st48" d="M1247.5,1082.5c0,0-0.5,1-2.4,2.3l-0.1-1.2c0,0-5.2,6.8-11.6,7.5c0,0-3.3-2-3.3-6.4
					c0.1-4.4,2.8-9.9,9.7-12.1c6.9-2.2,13.1,4.1,14.8,10c0.8,2.8,2.7,3.9,3.1,3.9c0.4,0,0.2,1.4-1.5,2.5
					C1254.4,1090.1,1248.8,1089.2,1247.5,1082.5"/>
				<path class="st43" d="M1233.6,1091.1c0,0-1.6-4.3-3.6-2.2c-0.9,1-0.3,3.1,0.7,4.1c1.2,1.1,2.9,1.8,3.3,1.4
					C1234.6,1093.7,1233.6,1091.1,1233.6,1091.1"/>
				<path class="st41" d="M1215.4,1119.3c-5.7,9-4.9,21.2,5.1,21.5c10.1,0.3,22.1-6.3,22.1-6.3l2.4-3.2c0,0-4.6-6.8-20.2-2.9
					c0,0,2.4-1.8,2.9-9.9"/>
				<path class="st48" d="M1242.7,1090.9c0,0.7-0.4,1.2-0.9,1.2c-0.5,0-0.9-0.6-0.9-1.2c0-0.7,0.4-1.2,0.9-1.2
					C1242.3,1089.7,1242.7,1090.2,1242.7,1090.9"/>
				<path class="st48" d="M1250.9,1091.4c0,0.7-0.4,1.2-0.9,1.2s-0.9-0.6-0.9-1.2c0-0.7,0.4-1.2,0.9-1.2
					S1250.9,1090.7,1250.9,1091.4"/>
				<path class="st43" d="M1248.3,1093.5c0,0,0.6,1,0,1.5c-0.6,0.5-1.9,0-1.9,0"/>
				<path class="st41" d="M1248.3,1093.5c0,0,0.6,1,0,1.5c-0.6,0.5-1.9,0-1.9,0"/>
				<path class="st43" d="M1243.1,1098.3c0,0,2,2.4,5.1,0.4"/>
				<path class="st41" d="M1243.1,1098.3c0,0,2,2.4,5.1,0.4"/>
				<path class="st41" d="M1240,1088.7c0,0,1.9-1.6,3.5,0"/>
				<path class="st41" d="M1251.6,1089.4c0,0-0.7-1.8-2.7-0.6"/>
				<path class="st42" d="M1241.3,1094.6c0,1.1-0.8,2-1.9,2c-1,0-1.9-0.9-1.9-2c0-1.1,0.8-2,1.9-2
					C1240.5,1092.6,1241.3,1093.5,1241.3,1094.6"/>
				<path class="st42" d="M1251.7,1098.1c0.5-1.4,0.6-2.8,0.6-3.9c-0.2,0-0.3-0.1-0.5-0.1c-1,0-1.9,0.9-1.9,2
					C1250,1097.1,1250.7,1098,1251.7,1098.1"/>
				<path class="st48" d="M1256.3,1147.3l-0.8-3.1l-5.1-1.3v2.6c0,0,0.8,3.8,5.7,4.2C1256.2,1149,1256.2,1148.2,1256.3,1147.3"/>
				<polygon class="st43" points="1255,1116.4 1243.5,1116.4 1238.6,1145.5 1258.3,1145.5 1261.2,1117.3 				"/>
				<polygon class="st41" points="1255,1116.4 1243.5,1116.4 1238.6,1145.5 1258.3,1145.5 1261.2,1117.3 				"/>
				<path class="st43" d="M1261.9,1124.2c0,0,2.6-5.6,2.1-7.9c-0.5-2.3-7.2-3.5-10.3-1.4c0,0-1.2,1-1.3,1.5c0,0,1.5,0.7,2.2,1
					c0.7,0.3,0.4,2.5,2.6,4.5C1259.4,1124,1261.9,1124.2,1261.9,1124.2"/>
				<path class="st41" d="M1261.9,1124.2c0,0,2.6-5.6,2.1-7.9c-0.5-2.3-7.2-3.5-10.3-1.4c0,0-1.2,1-1.3,1.5c0,0,1.5,0.7,2.2,1
					c0.7,0.3,0.4,2.5,2.6,4.5C1259.4,1124,1261.9,1124.2,1261.9,1124.2z"/>
				<path class="st42" d="M1256.8,1122c0,0,5.1-1.6,6.4-0.4c1.3,1.3,2.6,21.8-1.3,25.7c-3.8,3.8-10.2,1.6-10-2.7
					C1252.2,1140.3,1256.7,1126.2,1256.8,1122"/>
				<line class="st43" x1="1261" y1="1239.6" x2="1261.2" y2="1242.5"/>
				<line class="st41" x1="1261" y1="1239.6" x2="1261.2" y2="1242.5"/>
				<line class="st43" x1="1259.3" y1="1215.4" x2="1260.9" y2="1237.1"/>
				<line class="st41" x1="1259.3" y1="1215.4" x2="1260.9" y2="1237.1"/>
				<line class="st43" x1="1214.9" y1="1167" x2="1213.8" y2="1181.8"/>
				<line class="st41" x1="1214.9" y1="1167" x2="1213.8" y2="1181.8"/>
				<line class="st43" x1="1212.9" y1="1173.6" x2="1212.5" y2="1178.1"/>
				<line class="st41" x1="1212.9" y1="1173.6" x2="1212.5" y2="1178.1"/>
				<path class="st42" d="M1207.6,1156.8h-64v-81.9h64V1156.8z M1207.6,1074.5h-64c-0.2,0-0.4,0.2-0.4,0.4v81.9
					c0,0.2,0.2,0.4,0.4,0.4h64c0.2,0,0.4-0.2,0.4-0.4v-81.9C1208,1074.7,1207.8,1074.5,1207.6,1074.5"/>
				<path class="st42" d="M1172.1,1104.3h-24v-24h24V1104.3z M1172.1,1079.9h-24c-0.2,0-0.4,0.2-0.4,0.4v24c0,0.2,0.2,0.4,0.4,0.4
					h24c0.2,0,0.4-0.2,0.4-0.4v-24C1172.5,1080.1,1172.3,1079.9,1172.1,1079.9"/>
				<line class="st50" x1="1159.8" y1="1126.1" x2="1200.7" y2="1126.1"/>
				<line class="st50" x1="1151.1" y1="1131.1" x2="1200.7" y2="1131.1"/>
				<line class="st50" x1="1151.1" y1="1136.2" x2="1200.7" y2="1136.2"/>
				<line class="st50" x1="1151.1" y1="1141.3" x2="1200.7" y2="1141.3"/>
				<line class="st50" x1="1151.1" y1="1146.3" x2="1200.7" y2="1146.3"/>
				<line class="st50" x1="1151.1" y1="1151.4" x2="1177.8" y2="1151.4"/>
				<polyline class="st51" points="1149.5,1098.4 1158.1,1093.7 1160.1,1096 1170.8,1089.3 				"/>
				<path class="st42" d="M1180.3,1083c0,0.7-0.6,1.3-1.3,1.3s-1.3-0.6-1.3-1.3s0.6-1.3,1.3-1.3S1180.3,1082.2,1180.3,1083"/>
				<line class="st52" x1="1182.6" y1="1083" x2="1200.7" y2="1083"/>
				<path class="st42" d="M1180.3,1089.2c0,0.7-0.6,1.3-1.3,1.3s-1.3-0.6-1.3-1.3c0-0.7,0.6-1.3,1.3-1.3
					S1180.3,1088.5,1180.3,1089.2"/>
				<line class="st52" x1="1182.6" y1="1089.2" x2="1200.7" y2="1089.2"/>
				<path class="st42" d="M1180.3,1095.4c0,0.7-0.6,1.3-1.3,1.3s-1.3-0.6-1.3-1.3c0-0.7,0.6-1.3,1.3-1.3
					S1180.3,1094.7,1180.3,1095.4"/>
				<line class="st52" x1="1182.6" y1="1095.4" x2="1200.7" y2="1095.4"/>
				<path class="st42" d="M1180.3,1101.6c0,0.7-0.6,1.3-1.3,1.3s-1.3-0.6-1.3-1.3c0-0.7,0.6-1.3,1.3-1.3
					S1180.3,1100.9,1180.3,1101.6"/>
				<line class="st52" x1="1182.6" y1="1101.6" x2="1200.7" y2="1101.6"/>
				<path class="st42" d="M1200.7,1119.3h-52.6v-9.2h52.6V1119.3z M1200.7,1109.7h-52.6c-0.2,0-0.4,0.2-0.4,0.4v9.2
					c0,0.2,0.2,0.4,0.4,0.4h52.6c0.2,0,0.4-0.2,0.4-0.4v-9.2C1201.1,1109.8,1200.9,1109.7,1200.7,1109.7"/>
				<polyline class="st51" points="1140.6,1092.1 1140.6,1159.9 1166,1159.9 				"/>
				<line class="st51" x1="1140.6" y1="1080.2" x2="1140.6" y2="1084.8"/>
				<path class="st42" d="M1207.6,1071.9h-7.9v-1.6h7.9V1071.9z M1207.6,1069.9h-7.9c-0.2,0-0.4,0.2-0.4,0.4v1.6
					c0,0.2,0.2,0.4,0.4,0.4h7.9c0.2,0,0.4-0.2,0.4-0.4v-1.6C1208,1070.1,1207.8,1069.9,1207.6,1069.9"/>
				<line class="st43" x1="1150.2" y1="1204" x2="1172.3" y2="1204"/>
				<line class="st53" x1="1150.2" y1="1204" x2="1172.3" y2="1204"/>
				<line class="st43" x1="1159" y1="1201.2" x2="1167.5" y2="1201.2"/>
				<line class="st53" x1="1159" y1="1201.2" x2="1167.5" y2="1201.2"/>
				<path class="st54" d="M708.8,889.3c0,0,49.2,54.4,99.5,49.6c50.3-4.8-30.7-27.6-15.1,11.3c13.2,33,34.4,52.4,19.3,87"/>
				<path class="st54" d="M820,1004.4c0.2,1.3,0.3,2.6,0.3,3.9"/>
				<path class="st54" d="M810.3,975.8c0,0,6.9,11.4,9.3,25.7"/>
				<path class="st54" d="M768.6,936.9c1,0.3,2,0.5,3,0.8"/>
				<path class="st54" d="M715.9,905.4c0,0,16.8,20.5,49.7,30.6"/>
				<path class="st55" d="M729.8,1034.2c0,0,11.5,30.6-13.9,60.5c-25.4,29.9-42.8,51.8-22.5,80.1c20.3,28.3,4.2-27.1-10.5,0
					c-14.7,27.1,8.4,70.8,70.1,53.6"/>
				<path class="st55" d="M710.5,1109.1c-1.1,1.4-2.2,2.7-3.2,4.1"/>
				<path class="st55" d="M737,1043.1c0,0,3.2,27.6-9.5,44.9c-4.7,6.4-9.2,11.8-13.3,16.8"/>
				<path class="st55" d="M1328.3,1043.6c0,0-36.8-66-99.7-51.9c-62.9,14.1,42.7,36.7,7.3-13.3c-35.5-50-131.8-52.2-131.8-52.2"/>
				<path class="st55" d="M1100.5,922.2c18.2,0.8,49.9,3.5,74,12.2"/>
				<path class="st55" d="M1085.9,921.9c0,0,2.3,0,6.2,0.1"/>
			</g>
		</g>
	</g>
</g>
</svg>
