<?xml version="1.0" encoding="UTF-8"?>
<!DOCTYPE svg  PUBLIC '-//W3C//DTD SVG 1.0//EN'  'http://www.w3.org/TR/2001/REC-SVG-20010904/DTD/svg10.dtd'>
<svg width="73.748mm" height="68.366mm" clip-rule="evenodd" fill-rule="evenodd" image-rendering="optimizeQuality" shape-rendering="geometricPrecision" text-rendering="geometricPrecision" version="1.0" viewBox="0 0 169952 157550" xml:space="preserve" xmlns="http://www.w3.org/2000/svg">
 <defs>
  <style type="text/css">
   <![CDATA[
    .fil1 {fill:none}
    .fil0 {fill:#00A0E3}
   ]]>
  </style>
 </defs>
     <path class="fil0" d="m21488 54503c990-11932-16745-25892 4741-31467 13353-3466 13944 10249 6552 19979-4153 5468-4905 5585-4336 12145l-1 1c-1938-6086-127-7715 3436-12830 5143-7382 7419-20545-5162-17563-20429 4841-1679 18448-5230 29735z"/>
    <path class="fil1" d="m21488 54503c3293-9971-15190-22926 2321-29738 15091-5871 15992 9125 8522 17908-3570 4198-5294 7110-3886 12487"/>
     <path class="fil0" d="m21140 53846c-64 2346 7207 2109 6249-201-94-228-102-200-161-456 588-170 1167 514 1351 986 1807 4651-12679 1130-7439-329z"/>
    <path class="fil1" d="m21140 53846c-2565 2590 7888 2811 6912 329-123-315-479-873-824-986"/>
     <path class="fil0" d="m20445 54503c450 3025 32 2437 5827 2284 592-15 1046-1328 1303-1791 1863 5001-10498 5095-7130-493z"/>
    <path class="fil1" d="m20445 54503c-1143 3985 1156 2779 5565 2958 1378 55 1565-1517 1565-2465"/>
     <path class="fil0" d="m19923 56803c1358 1880 965 1194 1675 2615 5073 54 5106-297 6499-4258 818 2287 389 4543-2133 5542-4770 1891-5689-353-6041-3899z"/>
    <path class="fil1" d="m19923 56803c174 526 1220 3134 1247 3258 1937 380 5601 277 6291-1572 737-1978 636-1242 636-3329"/>
     <path class="fil0" d="m20445 59104c3678 3132-437 3370 6577 1878 384-1069 564-1858 901-2864 963 297 617 3679 53 4028-5271 3260-6762 1135-7531-3042z"/>
    <path class="fil1" d="m20445 59104c2053 2692-371 4917 7130 2464 188-691 813-2920 348-3450"/>
     <path class="fil0" d="m22358 55818c249-2062 2541-12923 1044-17689-3718-722-6411-2447-2764-3687 2193-746 3375 308 3919 2285 950 34 1961 2 2877-112 1562-2870 3838-5583 4761-2331 767 2703-1350 3868-4105 4125-2070 5724-3967 16144-4341 18066 196-5662 633-10964 2222-16502 119-412 313-935 561-1510-557-10-1123-49-1682-112 638 6014-2201 16541-2492 17467zm190-19277c-343-360-760-587-1269-645v2c-90 26-199 87-259 164 259 198 811 362 1528 479zm-1554-437l-5 11 1 2 4-13zm7974 208c1117-331 1799-870 1504-1672-487 43-995 663-1504 1672zm1587-1674c8 1 16 1 24 0-8-1-16 0-24 0z"/>
    <path class="fil1" d="m22358 55818c-23-691 5546-20436-1044-20703-1316-53-3605 3104 6783 2315 7227-550 850-12107-2957 9294-709 3989-1059 5779-1391 9751"/>
     <path class="fil0" d="m58471 72728c-9699-1978-17514 13424-3359 12250 455-37 588 88 778 468-3943 6164-9692 14576 2735 13287 177-19 547-76 722-175-198 129-238 522-83 717-136-91-375-168-535-110 12-4 12-6 21-14-1468 3772 8231 11554 12008 6874 97-121 101-212 96-355l1666 20c-521 5150 13955 9713 13876 1126l977-463c3771 3745 9010 6525 14131 2599 757-580-133-4526-249-5267 4281 10774-10265 9331-14726 3505 21 31 83 84 87 88l975-462c297 8854-11797 6742-15451 2523-5745-6635 4845-4235-1217-1319-12623 6071-17697-14920-10705-10299 7160 4732-23230 4841-5606-11912l778 468c-16480 1936-6683-18284 3081-13549z"/>
    <path class="fil1" d="m58471 72728c-10335-4222-17660 15996-3220 12900 31 108-11591 12725 209 13913 11925 1201-4248-6824 5794 6490 2074 2750 10876 2451 10435-487-1113 6311 16050 10657 15305 1272-6-66 5108 7837 14609 2435 1109-631-39-4465-348-5566"/>
     <path class="fil0" d="m57428 71685c-4811-5109 5988-11674 11997-6130 3655-5508 9756-11358 14835-3633 1103-688 3321-1348 7414-1711 7880-699 6406 5117 7560 6949 9557-1540 15443 2091 12835 12038 3366 3091 17286 7265 9157 15136 15445 10832-8173 14282-16831 10870l-3609-1598-3357-1312c5666 1455 10617 4168 16630 3260 17974-2712 9705-6452 5280-11141 268-2257 9305-3907-6035-12463-7403-4129 695-4144-3299-10268-5117-7846-11442 1330-12785-5465-1457-7375-9767-4403-12133-2716 378 1506-1882 780-1770-400-5995-10204-13155 4608-14220 3537-4885-4915-15022-1446-11669 5047z"/>
    <path class="fil1" d="m57428 71685c-4714-5910 8068-11076 12084-5337 1022-1448 6025-10788 11857-6172 6863 5433-2378 3300 8318 1133 12050-2440 6026 8752 10524 6430 2096-1081 15011-324 10873 11628-398 1148 19037 7766 8984 15046 0 248 16213 8559-5943 11618-8044 1111-12042-2864-16696-3737"/>
     <path class="fil0" d="m88385 86294c162-1073 5976-5107 3016 5368 10385 5033-2408 10226-13799 5762 2123 255 22376 1116 13133-4301-2869-1682 3910-10514-2350-6829z"/>
    <path class="fil1" d="m88385 86294c406-1011 6040-3970 2117 5714-139 342 7603 2896 1331 5416-3949 1588-10248 1481-14231 0"/>
     <path class="fil0" d="m64732 76206c-5828-3288-2444 2944-2910 5207-1006 4880-3054 12798 4648 6967l3 1c-219 741-180 866-779 1362-8905 7380-5995-6342-5223-9861-3054-4572 2728-7124 4261-3676zm-4173 3805c19 47 62 109 186 257-65-86-127-172-186-257z"/>
    <path class="fil1" d="m64732 76206c-2173-2953-6528 226-3448 3479 355 375-5277 15301 3677 10117 982-568 871-491 1510-1421"/>
     <path class="fil0" d="m1.3804e5 45773l-31-13c51-213 68-230 31 13zm-31-13l-37-13-5 196 42-183zm-37-13l-11-4 12-4-1 8zm-11-4c-10-4-17-6-19-5 1 7 11 6 19 5zm6 200c-375 13948-161 12006 14689 7835 470-132 3372-924 4613-1530-223-16145-612-14156-19577-9166-1485 391-453 1296 0 3130-693-1016-2540-2971 0-3826 17126-5760 22324-8581 21459 9889-160 3422-19646 5672-20273 5664-3046-44-1346-9996-911-11996z"/>
    <path class="fil1" d="m1.3804e5 45773c-519-1312-1157 11454 1013 11558 1905 92 19161-3534 19161-4808 0-17551-1037-14941-20522-9789-2105 557-372 2132 0 3478"/>
     <path class="fil0" d="m1.3421e5 41915c1197 6279 2041 12687 3001 19069 23036-5922 22883-2783 22267-19773-309-8518-4854-6949-12901-4228-2222 752-10707 4791-12019 5188 6537-3874 952-1979 11910-6182 6776-2598 13213-5023 14446 2696 3358 21017-4193 19629-24212 23757-1752 361-2428-18015-2492-20527z"/>
    <path class="fil1" d="m1.3421e5 41915c0 966 2339 19625 2435 19878 4600-1610 23653-3865 23653-9732 0-18315 2412-22680-21596-12407-48 20-3147 2332-4144 2517"/>
     <path class="fil0" d="m1.363e5 61885c7404 13140 393 13728 25993 3807 6188-2398-1920-8908-3383-10481 2679 1471 12078 8267 3573 11968-24198 10531-21482 9485-26183-5294z"/>
    <path class="fil1" d="m1.363e5 61885c6522 12687-1644 15297 26088 4551 8100-3139-3461-11224-3478-11225"/>
     <path class="fil0" d="m1.356e5 62765c4922 6442 3911 8086 6248 11615 1723 2603 25181-8568 24526-10104-104-243-692-605-861-725 8173 209-19332 14058-23434 13215-2033-418-5442-11813-6479-14001z"/>
    <path class="fil1" d="m1.356e5 62765c10156 13597-2785 18831 26405 5162 587-275 7315-3532 3508-4376"/>
     <path class="fil0" d="m1.3908e5 64280l1739-1436 1739 516-1739 1435-1739-515z"/>
    <path class="fil1" d="m1.3908e5 64280c1159-307 2319-613 3478-920"/>
     <path class="fil0" d="m1.4395e5 63340c746-956 1569-2034 2435-992-538 1110-227 877-1268 1526l-1167-534z"/>
    <path class="fil1" d="m1.4395e5 63340c1863-432 1515-827 2435-992"/>
     <path class="fil0" d="m1.4743e5 62072l1217-1297 1218 653-1218 1298-1217-654z"/>
    <path class="fil1" d="m1.4743e5 62072c812-214 1623-429 2435-644"/>
     <path class="fil0" d="m1.516e5 60621l1123-1670 1660 238-1123 1481-1660-49z"/>
    <path class="fil1" d="m1.516e5 60621c806-464 1978-1219 2783-1432"/>
     <path class="fil0" d="m1.5613e5 58034l1217-1297 1218 653-1218 1298-1217-654z"/>
    <path class="fil1" d="m1.5613e5 58034c812-215 1623-429 2435-644"/>
     <path class="fil0" d="m1.4012e5 67134c1665-2151 2694-2550 4175-1103-1074 1252-2968 1219-4175 1103z"/>
    <path class="fil1" d="m1.4012e5 67134c3180-1744 2954-676 4175-1103"/>
     <path class="fil0" d="m1.4604e5 65223l1565-1390 1565 562-1565 1389-1565-561z"/>
    <path class="fil1" d="m1.4604e5 65223c1043-276 2087-552 3130-828"/>
     <path class="fil0" d="m1.5091e5 63240c1609-1974 1542-1988 3479-1268-1781 1818-1547 1797-3479 1268z"/>
    <path class="fil1" d="m1.5091e5 63240c1773-641 1509-747 3479-1268"/>
     <path class="fil0" d="m1.5682e5 60285l981-1364 1107 464-709 1204-1379-304z"/>
    <path class="fil1" d="m1.5682e5 60285c809-292 1641-820 2088-900"/>
     <path class="fil0" d="m1.4221e5 69365l1565-1389 1565 561-1565 1390-1565-562z"/>
    <path class="fil1" d="m1.4221e5 69365c1043-276 2087-552 3130-828"/>
     <path class="fil0" d="m1.4813e5 67454c74-99 911-1069 920-1249 1053-574 1149-313 1862 165-12 17-869 1098-947 1304-1079 544-1128 308-1835-220z"/>
    <path class="fil1" d="m1.4813e5 67454c2053-479 692-531 2782-1084"/>
     <path class="fil0" d="m1.53e5 65123s1393-813 1621-1005c-73 85-141 119-259 242l-3 33c879-653 971-521 1772-99v2c-581 843-362 506-676 1e3 25 43 10 25 41 56-561 1540-2107 213-2496-229z"/>
    <path class="fil1" d="m1.53e5 65123c2857 135 1051-278 3131-828"/>
     <path class="fil0" d="m1.5821e5 62699c74-98 912-1069 920-1248 1053-574 1149-313 1863 165-13 18-870 1098-948 1304-1078 543-1128 307-1835-221z"/>
    <path class="fil1" d="m1.5821e5 62699c2053-478 692-530 2783-1083"/>
     <path class="fil0" d="m1.4395e5 70645l1217-1298 1218 654-1218 1297-1217-653z"/>
    <path class="fil1" d="m1.4395e5 70645c811-215 1623-430 2435-644"/>
     <path class="fil0" d="m1.4986e5 69081l2087-1527 2087 423-2087 1528-2087-424z"/>
    <path class="fil1" d="m1.4986e5 69081c1391-368 2783-736 4174-1104"/>
     <path class="fil0" d="m1.5752e5 66014l912-1535 1523 196-966 1510-1469-171z"/>
    <path class="fil1" d="m1.5752e5 66014c121-70 2241-1303 2435-1339"/>
     <path class="fil0" d="m1.6204e5 63775l459-1242 933 526-460 1242-932-526z"/>
    <path class="fil1" d="m1.6204e5 63775l1392-716"/>
     <path class="fil0" d="m1.4941e5 93857c-1618 15610-283 13275 11985 13647 6822 207 6941 1009 5696-10004-591-5228-6828-3429-10850-3310l-6483 15c5798-812 17682-4842 18900 3144 1776 11631 1295 12408-7452 11893-11357-669-16455 606-11796-15385z"/>
    <path class="fil1" d="m1.4941e5 93857c-1079 3461-2082 13913 2176 13913 16487 0 17811 5439 16289-10346-657-6807-9358-3219-18117-3219"/>
     <path class="fil0" d="m1.4975e5 94205c10148 13594 11658 1374 17391-348-1223 1290-1896 1916-2833 3471-5288 8774-12419 4890-14558-3123z"/>
    <path class="fil1" d="m1.4975e5 94205c1895 5036 8735 11763 14032 2812 568-960 2143-2633 3359-3160"/>
     <path class="fil0" d="m83965 14771c25 1078 30 2092 23 3050 834-16432-6802-14133 13195-13538 8592 255 4278 31892 1013 31830-19509-366-15864-4189-14231-21342zm20 3370c-161 15290-3521 15514 13895 16314 1738-3748 4807-28349-697-28675-48-3-11894-907-13120-518 61 531 963 6629 902 7504l-980 5375z"/>
    <path class="fil1" d="m83965 14771c0 17834-5937 19726 14262 20522 1560 62 6408-30262-1044-30262-22280 0-9711-3929-13218 13218"/>
     <path class="fil0" d="m81531 2596c42 2359-519 34105 1653 35480 186 118 17238 5130 17547-307 217-3819 4910-33890-563-35270-4840-1221-14712-4364-17464 1544-100 215-324 458-478 641 154-505 67-272 266-726 649-6348 14549-3334 17907-2595 7123 1568 2543 31669 2280 36323-482 8519-19320 2378-20536 1542-3395-2334-820-33850-612-36632z"/>
    <path class="fil1" d="m81531 2596c0 5935-1693 33508 1132 36056 122 110 19343 6110 19042-924-284-6639 5138-34460-1421-35797-3577-729-17188-3861-17680 2057l-378 696"/>
     <path class="fil0" d="m87934 36150c-268-384-71-431 350-260 119-68 249-122 389-160 265-294 540-261 778-55 456 49 983 228 1576 581 964 572 673 1194-18 1591 952 1010 1340 2089-392 2451-3283 687-4054-2823-2683-4148z"/>
    <path class="fil1" d="m89531 37728c-3521-5541 4380 4638-606 984-3701-2712 5188-2050 347-1014-1479-3573 2351 348-437 30"/>
      <path class="fil0" d="m1269 1.1872e5c-6921-22121 16956-28327 12189 172-472 2820-7706-1573-13216 581 314-304 658-552 1027-753zm10-5c3446-1867 8960 424 10860-132 209-3501 1046-16260-4449-17090-7348-1110-6837 13335-6411 17222z"/>
     <path class="fil1" d="m1286 1.1878e5c-5635-19810 15130-28304 11508 30-217 1693-9132-2169-12552 665"/>
      <path class="fil0" d="m5565 94691c-3915 4592 6027 8030 5237 1693l-366-1674c-2916-486-1612-1765-4871-19zm44-506c2466-2274 5979-1928 6807 1906 2703 12510-15929 35-6807-1906z"/>
     <path class="fil1" d="m6155 94085c-8544 3436 9316 12836 4870 0-2250 177-2782-2438-6261 1043"/>
      <path class="fil0" d="m14310 1.2387e5c-6921-22122 16956-28327 12189 171-472 2820-7705-1572-13216 582 314-305 658-553 1027-753zm10-6c3446-1867 8960 424 10860-132 209-3501 1046-16260-4449-17090-7348-1109-6837 13335-6411 17222z"/>
     <path class="fil1" d="m14327 1.2393e5c-5635-19809 15130-28304 11508 30-216 1693-9132-2168-12552 666"/>
      <path class="fil0" d="m18606 99837c-3915 4592 6027 8031 5237 1694l-366-1674c-2916-487-1612-1765-4871-20zm44-506c2466-2273 5979-1927 6807 1906 2703 12511-15929 35-6807-1906z"/>
     <path class="fil1" d="m19196 99231c-8543 3436 9316 12836 4870 0-2250 178-2782-2438-6261 1043"/>
      <path class="fil0" d="m26289 1.2256e5c-6921-22121 16957-28327 12189 171-472 2821-7705-1572-13215 582 313-305 658-552 1026-753zm11-5c3445-1868 8959 424 10859-132 210-3501 1046-16261-4448-17090-7348-1110-6838 13335-6411 17222z"/>
     <path class="fil1" d="m26306 1.2261e5c-5635-19809 15130-28303 11508 30-216 1694-9131-2168-12551 666"/>
      <path class="fil0" d="m30585 98522c-3914 4593 6027 8031 5237 1694l-366-1674c-2915-486-1612-1765-4871-20zm45-506c2466-2273 5979-1927 6807 1906 2703 12511-15929 35-6807-1906z"/>
     <path class="fil1" d="m31176 97916c-8544 3436 9316 12836 4869 0-2249 178-2782-2437-6260 1044"/>
     <path class="fil0" d="m88862 1.2563e5c-11413 2836 6614 16184 7109 4853 176-4025-3730-5685-7495-4921 127 21 253 41 386 68zm-570-101c4380-3478 10582 1818 8915 7e3 -4649 14449-20866-8805-8915-7e3z"/>
    <path class="fil1" d="m88862 1.2563e5c-11530-372 3233 18278 7563 6609 1759-4742-4021-9249-8259-6609"/>
     <path class="fil0" d="m83644 1.2459e5c-9227 11336 19408 21353 15854 4234-755-3632-10711-9273-15854-3887 2041-6489 16983-2e3 17551 4106 2128 22897-30483 3706-17551-4453z"/>
    <path class="fil1" d="m83644 1.2459e5c-11144 8491 18448 25206 16726 4521-423-5081-13734-10159-16726-4174"/>
     <path class="fil0" d="m93384 1.3989e5s14686 23434 12659 12092c-623-3488-6416-10975-8485-13483 3821 2811 11299 10423 10065 16175-2442 11391-14239-14783-14239-14784z"/>
    <path class="fil1" d="m93384 1.3989e5c1284 1784 12996 25819 13565 12522 122-2838-7903-13398-9391-13913"/>
     <path class="fil0" d="m92688 1.3885e5c17 25 14546 23550 13316 13253-347-2906-15550-18171-4968-16384-9822 2506 7742 9675 6777 17895-1480 12613-14763-13949-15125-14764z"/>
    <path class="fil1" d="m92688 1.3885e5c157 119 13719 26240 14261 13565 198-4633-16177-16696-5913-16696"/>
    <path class="fil0" d="m15514 63511c-5241 9881-2743 11004-2783 22261-2436-8191-4653-16149 2783-22261z"/>
   <path class="fil1" d="m15514 63511c-7609 8172-2526 19015-2783 22261"/>
    <path class="fil0" d="m6122 82642c11206 7682 6831 8449 13218 695-3994 11099-5807 8539-13218-695z"/>
   <path class="fil1" d="m6122 82642c10253 9319 8101 9358 13218 695"/>
    <path class="fil0" d="m36732 47510c5637-2521 20129 5756 21218 11131-4473-4678-14744-10470-21218-11131z"/>
   <path class="fil1" d="m36732 47510c5007-1561 19817 7088 21218 11131"/>
    <path class="fil0" d="m58645 53771c8711 7085-3159 7637-3826 7305 409-358 188-223 653-419l-78 20c6204-3543 5236-1458 3251-6906z"/>
   <path class="fil1" d="m58645 53771c3706 5144 3452 4653-3130 7215l-696 90"/>
    <path class="fil0" d="m42297 36032c13248-10437 13067-10809 29923-11348 629-144 309-98 1033-133l2 4c-277 218-641 561-1006 623-16938 2890-14830 2389-29952 10854z"/>
   <path class="fil1" d="m42297 36032c11703-8055 15493-10635 29943-11101l1014-378"/>
    <path class="fil0" d="m72211 21771c5944-3038 9126 4422 695 7304 4549-5062 4738-6214-695-7304z"/>
   <path class="fil1" d="m72211 21771c6753-1351 6027 4558 695 7304"/>
    <path class="fil0" d="m1.0526e5 40554c7157 6652 6087 11906 4871 21218h-2c-1108-10124-210-12567-4869-21218z"/>
   <path class="fil1" d="m1.0526e5 40554c5856 6482 4870 12994 4870 21218"/>
    <path class="fil0" d="m1.0491e5 57598c6023 6549 6533 8716 9405 2025l-6 38c154-469 44-243 341-672 1111 2406-2936 14174-9740-1391z"/>
   <path class="fil1" d="m1.0491e5 57598c2426 3867 7377 12355 9680 2087l60-696"/>
    <path class="fil0" d="m1.3865e5 34293c-6559-5141-13490-4145-22609-6609 6633 233 19043-879 22609 6609z"/>
   <path class="fil1" d="m1.3865e5 34293c-4264-6396-15644-4818-22609-6609"/>
    <path class="fil0" d="m1.1812e5 22466c-10217 6529-1958 5614-1738 10087l-3 1c-138-106-784-670-945-762-7276-4157-4312-8669 2686-9326z"/>
   <path class="fil1" d="m1.1812e5 22466c-5841 1634-8405 4951-2872 8696 789 534 649 507 1133 1391"/>
    <path class="fil0" d="m1.6578e5 71163c3930 4197 2630 10271 348 14957 426-5058 593-9965-348-14957z"/>
   <path class="fil1" d="m1.6578e5 71163c2031 2728 2047 11555 348 14957"/>
    <path class="fil0" d="m1.6195e5 80555c3028 7629 2585 7852 8e3 3826-2584 6944-8970 5641-8e3 -3826z"/>
   <path class="fil1" d="m1.6195e5 80555c524 5930 3101 10952 8e3 3826"/>
    <path class="fil0" d="m1.5256e5 1.1673e5c-4802 16868-36524 27352-43479 21565 943 261 1551 447 2548 543 13515 1302 34384-9929 40931-22108z"/>
   <path class="fil1" d="m1.5256e5 1.1673e5c-4520 15651-36844 25942-43479 21565"/>
    <path class="fil0" d="m1.1012e5 1.3412e5c-3970 8528-6453 9833 1043 7653-5155 5909-11148 635-1043-7653z"/>
   <path class="fil1" d="m1.1012e5 1.3412e5c-40 30-9583 11545-1133 8984 317-96 1702-1059 2176-1331"/>
    <path class="fil0" d="m34645 1.2751e5c18564 10305 22912 15615 43424 11663 1323-255 459 274 1794-185v2c-630 883-650 373-1624 689-19880 6442-27255-425-43594-12169z"/>
   <path class="fil1" d="m34645 1.2751e5c13314 7875 23815 18531 43509 11916 1011-340 787 327 1709-437"/>
    <path class="fil0" d="m74993 1.3551e5c5590-1879 8309 3714 5218 9391-377-6559 270-7207-5218-9391z"/>
   <path class="fil1" d="m74993 1.3551e5c6069-203 6506 4810 5218 9391"/>
    <path class="fil0" d="m41601 1.1812e5c5634-279 13757-1635 16349-7305 1899 4181-8369 10296-16349 7305z"/>
   <path class="fil1" d="m41601 1.1812e5c5187 1617 16776-2316 16349-7305"/>
    <path class="fil0" d="m52732 1.0838e5c6369-748 8291-1193 8306 6267l-43-142c142 527 109 250 86 831l-2 2c-344-188-596-250-712-642-2272-7645-2363-3438-7635-6316z"/>
   <path class="fil1" d="m52732 1.0838e5c3851 1242 7364-1937 7971 6291l377 666"/>
    <path class="fil0" d="m1.136e5 1.2473e5c12911-14156 6466-11065 24382-15364 86-21 235-215 314-289 168 575-219 684-726 863-16654 5884-10202 4221-23970 14790z"/>
   <path class="fil1" d="m1.136e5 1.2473e5c11363-8658 5051-10685 23911-15047 586-135 672-117 785-606"/>
    <path class="fil0" d="m1.3723e5 1.0531e5l-49 96c-8-54-45-110-76-148-358-149-427-186-8-55 11279-2587 7140 9345 4337 8399 1075-1308 2023-3763 1322-5366-369-844-4229-2392-5526-2926zm-49 96c-25 48-21 41-78 127 68-31 85-78 78-127z"/>
   <path class="fil1" d="m1.3726e5 1.0525e5c-2321 831 9912-1806 5595 6986-334 680-657 1231-1421 1362"/>
    <path class="fil0" d="m1.3412e5 71163c5069 7566-3880 19231-5565 17740 4440-4580 6066-11507 5565-17740z"/>
   <path class="fil1" d="m1.3412e5 71163c3071 6789-3400 17910-5565 17740"/>
    <path class="fil0" d="m1.2682e5 83685c2751 8861 1157 9660 7652 7305-5895 7064-8222 112-7652-7305z"/>
   <path class="fil1" d="m1.2682e5 83685c712 3218-275 13532 7652 7305"/>
</svg>
